<svg width="870" height="150" viewBox="0 0 870 150" fill="none">
    <g opacity="1" transform="translate(0 0)  rotate(0)">
        <g opacity="1" transform="translate(0 0)  rotate(0)">
            <path
                    id="矩形"
                    fill-rule="evenodd"
                    style="fill: #02004d"
                    opacity="1"
                    d="M72 116.1L783 116.1C810.34 116.1 832.5 93.94 832.5 66.6L832.5 66.6C832.5 39.26 810.34 17.1 783 17.1L72 17.1C44.66 17.1 22.5 39.26 22.5 66.6L22.5 66.6C22.5 93.94 44.66 116.1 72 116.1Z"
            ></path>
            <path
                    id="矩形"
                    style="fill: url(#linear_20); opacity: 100"
                    d="M72,112.5h711c25.35,0 45.9,-20.5501 45.9,-45.9c0,-25.3499 -20.55,-45.9 -45.9,-45.9h-711c-25.3499,0 -45.9,20.5501 -45.9,45.9c0,25.3499 20.5501,45.9 45.9,45.9zM72,119.7c-29.3263,0 -53.1,-23.7737 -53.1,-53.1c0,-29.3263 23.7737,-53.1 53.1,-53.1h711c29.326,0 53.1,23.7737 53.1,53.1c0,29.3263 -23.774,53.1 -53.1,53.1z"
            ></path>
            <path
                    id="矩形"
                    style="fill: url(#linear_21); opacity: 100"
                    d="M68.8501,119.7h717.2999c29.078,0 52.65,-23.5722 52.65,-52.65c0,-29.0778 -23.572,-52.65 -52.65,-52.65h-717.2999c-29.0778,0 -52.6501,23.5722 -52.6501,52.65c0,29.0778 23.5723,52.65 52.6501,52.65zM68.8501,130.5c-35.0425,0 -63.45005,-28.408 -63.45005,-63.45c0,-35.0425 28.40755,-63.45 63.45005,-63.45h717.2999c35.043,0 63.45,28.4075 63.45,63.45c0,35.042 -28.407,63.45 -63.45,63.45z"
            ></path>
            <path
                    id="矩形"
                    style="fill: url(#linear_22); opacity: 100"
                    d="M66.6,130.5h721.8c35.291,0 63.9,-28.609 63.9,-63.9c0,-35.291 -28.609,-63.9 -63.9,-63.9h-721.8c-35.291,0 -63.9,28.609 -63.9,63.9c0,35.291 28.609,63.9 63.9,63.9zM66.6,135.9c-38.2733,0 -69.3,-31.027 -69.3,-69.3c0,-38.2733 31.0267,-69.3 69.3,-69.3h721.8c38.273,0 69.3,31.0267 69.3,69.3c0,38.273 -31.027,69.3 -69.3,69.3z"
            ></path>
            <g opacity="1" transform="translate(78 132.5)  rotate(0)">
                <path
                        id="路径 2"
                        style="fill: url(#linea_23); opacity: 100"
                        d="M1,0v9c0,10.4934 8.50659,19 19,19h56.94c0.06567,0 0.1307,0.0064 0.1951,0.0192c0.0644,0.0128 0.12693,0.03177 0.1876,0.0569c0.06067,0.02513 0.1183,0.05593 0.1729,0.0924c0.0546,0.03647 0.1051,0.07793 0.1515,0.1244c0.0464,0.0464 0.08787,0.0969 0.1244,0.1515c0.03647,0.0546 0.06727,0.11223 0.0924,0.1729c0.02513,0.06067 0.0441,0.1232 0.0569,0.1876c0.0128,0.0644 0.0192,0.12943 0.0192,0.1951c0,0.06567 -0.0064,0.1307 -0.0192,0.1951c-0.0128,0.0644 -0.03177,0.12693 -0.0569,0.1876c-0.02513,0.06067 -0.05593,0.1183 -0.0924,0.1729c-0.03653,0.0546 -0.078,0.1051 -0.1244,0.1515c-0.0464,0.0464 -0.0969,0.08787 -0.1515,0.1244c-0.0546,0.03647 -0.11223,0.06727 -0.1729,0.0924c-0.06067,0.02513 -0.1232,0.0441 -0.1876,0.0569c-0.0644,0.0128 -0.12943,0.0192 -0.1951,0.0192h-56.94c-11.59798,0 -21,-9.402 -21,-21v-9c0,-0.06566 0.0064,-0.13069 0.01921,-0.19509c0.01281,-0.0644 0.03178,-0.12693 0.05691,-0.18759c0.02513,-0.06066 0.05593,-0.11829 0.09241,-0.17289c0.03648,-0.0546 0.07793,-0.10511 0.12436,-0.15154c0.04643,-0.04643 0.09694,-0.08788 0.15154,-0.12436c0.05459,-0.03648 0.11222,-0.06728 0.17289,-0.09241c0.06066,-0.02513 0.12319,-0.0441 0.18759,-0.05691c0.0644,-0.01281 0.12943,-0.01921 0.19509,-0.01921c0.06566,0 0.13069,0.0064 0.19509,0.01921c0.0644,0.01281 0.12693,0.03178 0.18759,0.05691c0.06066,0.02513 0.11829,0.05593 0.17289,0.09241c0.0546,0.03648 0.10511,0.07793 0.15154,0.12436c0.04643,0.04643 0.08788,0.09694 0.12436,0.15154c0.03648,0.05459 0.06728,0.11222 0.09241,0.17289c0.02513,0.06066 0.0441,0.12319 0.05691,0.18759c0.01281,0.0644 0.01921,0.12943 0.01921,0.19509z"
                ></path>
                <path
                        id="路径 2"
                        style="fill: url(#linear_24); opacity: 100"
                        d="M699.94,0v9c0,11.598 -9.402,21 -21,21h-56.94c-0.066,0 -0.131,-0.0064 -0.195,-0.0192c-0.06467,-0.0128 -0.12733,-0.03177 -0.188,-0.0569c-0.06067,-0.02513 -0.11833,-0.05593 -0.173,-0.0924c-0.05467,-0.03653 -0.105,-0.078 -0.151,-0.1244c-0.04667,-0.0464 -0.08833,-0.0969 -0.125,-0.1515c-0.036,-0.0546 -0.06667,-0.11223 -0.092,-0.1729c-0.02533,-0.06067 -0.04433,-0.1232 -0.057,-0.1876c-0.01267,-0.0644 -0.019,-0.12943 -0.019,-0.1951c0,-0.06567 0.00633,-0.1307 0.019,-0.1951c0.01267,-0.0644 0.03167,-0.12693 0.057,-0.1876c0.02533,-0.06067 0.056,-0.1183 0.092,-0.1729c0.03667,-0.0546 0.07833,-0.1051 0.125,-0.1515c0.046,-0.04647 0.09633,-0.08793 0.151,-0.1244c0.05467,-0.03647 0.11233,-0.06727 0.173,-0.0924c0.06067,-0.02513 0.12333,-0.0441 0.188,-0.0569c0.064,-0.0128 0.129,-0.0192 0.195,-0.0192h56.94c10.493,0 19,-8.5066 19,-19v-9c0,-0.06566 0.00633,-0.13069 0.019,-0.19509c0.01267,-0.0644 0.03167,-0.12693 0.057,-0.18759c0.02533,-0.06066 0.056,-0.11829 0.092,-0.17289c0.03667,-0.0546 0.07833,-0.10511 0.125,-0.15154c0.046,-0.04643 0.09633,-0.08788 0.151,-0.12436c0.05467,-0.03648 0.11233,-0.06728 0.173,-0.09241c0.06067,-0.02513 0.12333,-0.0441 0.188,-0.05691c0.064,-0.01281 0.129,-0.01921 0.195,-0.01921c0.06533,0 0.13033,0.0064 0.195,0.01921c0.06467,0.01281 0.12733,0.03178 0.188,0.05691c0.06067,0.02513 0.118,0.05593 0.172,0.09241c0.05467,0.03648 0.10533,0.07793 0.152,0.12436c0.04667,0.04643 0.088,0.09694 0.124,0.15154c0.03667,0.05459 0.06767,0.11222 0.093,0.17289c0.02467,0.06066 0.04367,0.12319 0.057,0.18759c0.01267,0.0644 0.019,0.12943 0.019,0.19509z"
                ></path>
            </g>
            <g opacity="1" transform="translate(117 122.5)  rotate(0)">
                <g opacity="1" transform="translate(318 0)  rotate(0)">
                    <path
                            id="形状结合"
                            fill-rule="evenodd"
                            style="fill: #0061ff"
                            opacity="1"
                            d="M50.5,0.5c0,-0.28 0.22,-0.5 0.5,-0.5h7.5c0.28,0 0.5,0.22 0.5,0.5c0,0.28 -0.22,0.5 -0.5,0.5h-7.5c-0.28,0 -0.5,-0.22 -0.5,-0.5zM60.8333,0.5c0,-0.28 0.22,-0.5 0.5,-0.5h2.5c0.28,0 0.5,0.22 0.5,0.5c0,0.28 -0.22,0.5 -0.5,0.5h-2.5c-0.28,0 -0.5,-0.22 -0.5,-0.5zM66.1667,0.5c0,-0.28 0.22,-0.5 0.5,-0.5h2.5c0.28,0 0.5,0.22 0.5,0.5c0,0.28 -0.22,0.5 -0.5,0.5h-2.5c-0.28,0 -0.5,-0.22 -0.5,-0.5zM71.5,0.5c0,-0.28 0.22,-0.5 0.5,-0.5h2.5c0.28,0 0.5,0.22 0.5,0.5c0,0.28 -0.22,0.5 -0.5,0.5h-2.5c-0.28,0 -0.5,-0.22 -0.5,-0.5zM76.8333,0.5c0,-0.28 0.22,-0.5 0.5,-0.5h2.5c0.28,0 0.5,0.22 0.5,0.5c0,0.28 -0.22,0.5 -0.5,0.5h-2.5c-0.28,0 -0.5,-0.22 -0.5,-0.5zM82.1667,0.5c0,-0.28 0.22,-0.5 0.5,-0.5h2.5c0.28,0 0.5,0.22 0.5,0.5c0,0.28 -0.22,0.5 -0.5,0.5h-2.5c-0.28,0 -0.5,-0.22 -0.5,-0.5zM87.5,0.5c0,-0.28 0.22,-0.5 0.5,-0.5h2.5c0.28,0 0.5,0.22 0.5,0.5c0,0.28 -0.22,0.5 -0.5,0.5h-2.5c-0.28,0 -0.5,-0.22 -0.5,-0.5zM92.8333,0.5c0,-0.28 0.22,-0.5 0.5,-0.5h2.5c0.28,0 0.5,0.22 0.5,0.5c0,0.28 -0.22,0.5 -0.5,0.5h-2.5c-0.28,0 -0.5,-0.22 -0.5,-0.5zM98.1667,0.5c0,-0.28 0.22,-0.5 0.5,-0.5h2.5003c0.28,0 0.5,0.22 0.5,0.5c0,0.28 -0.22,0.5 -0.5,0.5h-2.5003c-0.28,0 -0.5,-0.22 -0.5,-0.5zM103.5,0.5c0,-0.28 0.22,-0.5 0.5,-0.5h4c0.28,0 0.5,0.22 0.5,0.5c0,0.28 -0.22,0.5 -0.5,0.5h-4c-0.28,0 -0.5,-0.22 -0.5,-0.5z"
                    ></path>
                    <path
                            id="路径 35"
                            style="fill: url(#linear_25); opacity: 100"
                            d="M8.25,4.7h100.85v1l-0.531,-0.84721l9.09,-5.7c0.159,-0.09983 0.343,-0.15279 0.531,-0.15279h62.52c0.296,0 0.578,0.13154 0.768,0.35911l9,10.77999l-0.768,0.6409v-1h44.64v1l-0.666,-0.7461l6.04,-5.39001c0.183,-0.16352 0.42,-0.25389 0.666,-0.25389h61.11c0.06533,0 0.13033,0.0064 0.195,0.01921c0.06467,0.01281 0.12733,0.03178 0.188,0.05691c0.06067,0.02513 0.11833,0.05593 0.173,0.09241c0.054,0.03648 0.10433,0.07793 0.151,0.12436c0.04667,0.04643 0.088,0.09695 0.124,0.15154c0.03667,0.05459 0.06767,0.11222 0.093,0.17289c0.02533,0.06066 0.04433,0.12319 0.057,0.18759c0.01267,0.0644 0.019,0.12943 0.019,0.19509c0,0.06566 -0.00633,0.13069 -0.019,0.19509c-0.01267,0.0644 -0.03167,0.12693 -0.057,0.18759c-0.02533,0.06067 -0.05633,0.1183 -0.093,0.17289c-0.036,0.05459 -0.07733,0.10511 -0.124,0.15154c-0.04667,0.04643 -0.097,0.08788 -0.151,0.12436c-0.05467,0.03648 -0.11233,0.06728 -0.173,0.09241c-0.06067,0.02513 -0.12333,0.04409 -0.188,0.0569c-0.06467,0.01281 -0.12967,0.01922 -0.195,0.01922h-61.11v-1l0.666,0.74611l-6.04,5.38999c-0.183,0.1635 -0.42,0.2539 -0.666,0.2539h-44.64c-0.296,0 -0.578,-0.1315 -0.768,-0.3591l-9,-10.78001l0.768,-0.64089v1h-62.52v-1l0.531,0.84721l-9.09,5.7c-0.159,0.09984 -0.343,0.15279 -0.531,0.15279h-100.85c-0.06566,0 -0.13069,-0.0064 -0.19509,-0.01921c-0.0644,-0.01281 -0.12693,-0.03178 -0.18759,-0.05691c-0.06067,-0.02513 -0.1183,-0.05593 -0.17289,-0.09241c-0.05459,-0.03648 -0.10511,-0.07793 -0.15154,-0.12436c-0.04643,-0.04643 -0.08788,-0.09695 -0.12436,-0.15154c-0.03648,-0.05459 -0.06728,-0.11222 -0.09241,-0.17289c-0.02513,-0.06066 -0.0441,-0.12319 -0.05691,-0.18759c-0.01281,-0.0644 -0.01921,-0.12943 -0.01921,-0.19509c0,-0.06566 0.0064,-0.13069 0.01921,-0.19509c0.01281,-0.0644 0.03178,-0.12693 0.05691,-0.18759c0.02513,-0.06067 0.05593,-0.1183 0.09241,-0.17289c0.03648,-0.05459 0.07793,-0.10511 0.12436,-0.15154c0.04643,-0.04643 0.09695,-0.08788 0.15154,-0.12436c0.05459,-0.03648 0.11222,-0.06728 0.17289,-0.09241c0.06066,-0.02513 0.12319,-0.0441 0.18759,-0.05691c0.0644,-0.01281 0.12943,-0.01921 0.19509,-0.01921z"
                    ></path>
                    <g opacity="1" transform="translate(127.5 3.5)  rotate(0)">
                        <path
                                id="椭圆形"
                                style="fill: #00fff4; opacity: 1"
                                d="M5,3c0,-1.10457 -0.89543,-2 -2,-2c-1.10457,0 -2,0.89543 -2,2c0,1.10457 0.89543,2 2,2c1.10457,0 2,-0.89543 2,-2zM7,3c0,2.20914 -1.79086,4 -4,4c-2.20914,0 -4,-1.79086 -4,-4c0,-2.20914 1.79086,-4 4,-4c2.20914,0 4,1.79086 4,4z"
                        ></path>
                        <path
                                id="椭圆形备份 4"
                                style="fill: #00fff4; opacity: 1"
                                d="M19,3c0,-1.10457 -0.8954,-2 -2,-2c-1.1046,0 -2,0.89543 -2,2c0,1.10457 0.8954,2 2,2c1.1046,0 2,-0.89543 2,-2zM21,3c0,2.20914 -1.7909,4 -4,4c-2.2091,0 -4,-1.79086 -4,-4c0,-2.20914 1.7909,-4 4,-4c2.2091,0 4,1.79086 4,4z"
                        ></path>
                        <path
                                id="椭圆形备份 6"
                                style="fill: #00fff4; opacity: 1"
                                d="M47,3c0,-1.10457 -0.8954,-2 -2,-2c-1.1046,0 -2,0.89543 -2,2c0,1.10457 0.8954,2 2,2c1.1046,0 2,-0.89543 2,-2zM49,3c0,2.20914 -1.7909,4 -4,4c-2.2091,0 -4,-1.79086 -4,-4c0,-2.20914 1.7909,-4 4,-4c2.2091,0 4,1.79086 4,4z"
                        ></path>
                        <path
                                id="椭圆形备份 5"
                                fill-rule="evenodd"
                                style="fill: #00fff4"
                                opacity="1"
                                d="M34 3C34 1.34 32.66 0 31 0C29.34 0 28 1.34 28 3C28 4.66 29.34 6 31 6C32.66 6 34 4.66 34 3Z"
                        ></path>
                    </g>
                    <path
                            id="椭圆形"
                            style="fill: #00b5d7; opacity: 1"
                            d="M6,5c0,-1.10457 -0.89543,-2 -2,-2c-1.10457,0 -2,0.89543 -2,2c0,1.10457 0.89543,2 2,2c1.10457,0 2,-0.89543 2,-2zM10,5c0,3.31371 -2.68629,6 -6,6c-3.31371,0 -6,-2.68629 -6,-6c0,-3.31371 2.68629,-6 6,-6c3.31371,0 6,2.68629 6,6z"
                    ></path>
                </g>
                <g opacity="1" transform="translate(0 0)  rotate(0)">
                    <path
                            id="形状结合"
                            fill-rule="evenodd"
                            style="fill: #0061ff"
                            opacity="1"
                            d="M194,0h4c0.28,0 0.5,0.22 0.5,0.5c0,0.28 -0.22,0.5 -0.5,0.5h-4c-0.28,0 -0.5,-0.22 -0.5,-0.5c0,-0.28 0.22,-0.5 0.5,-0.5zM200.833,0h2.5c0.28,0 0.5,0.22 0.5,0.5c0,0.28 -0.22,0.5 -0.5,0.5h-2.5c-0.28,0 -0.5,-0.22 -0.5,-0.5c0,-0.28 0.22,-0.5 0.5,-0.5zM206.167,0h2.5c0.28,0 0.5,0.22 0.5,0.5c0,0.28 -0.22,0.5 -0.5,0.5h-2.5c-0.28,0 -0.5,-0.22 -0.5,-0.5c0,-0.28 0.22,-0.5 0.5,-0.5zM211.5,0h2.5c0.28,0 0.5,0.22 0.5,0.5c0,0.28 -0.22,0.5 -0.5,0.5h-2.5c-0.28,0 -0.5,-0.22 -0.5,-0.5c0,-0.28 0.22,-0.5 0.5,-0.5zM216.833,0h2.5c0.28,0 0.5,0.22 0.5,0.5c0,0.28 -0.22,0.5 -0.5,0.5h-2.5c-0.28,0 -0.5,-0.22 -0.5,-0.5c0,-0.28 0.22,-0.5 0.5,-0.5zM222.167,0h2.5c0.28,0 0.5,0.22 0.5,0.5c0,0.28 -0.22,0.5 -0.5,0.5h-2.5c-0.28,0 -0.5,-0.22 -0.5,-0.5c0,-0.28 0.22,-0.5 0.5,-0.5zM227.5,0h2.5c0.28,0 0.5,0.22 0.5,0.5c0,0.28 -0.22,0.5 -0.5,0.5h-2.5c-0.28,0 -0.5,-0.22 -0.5,-0.5c0,-0.28 0.22,-0.5 0.5,-0.5zM232.833,0h2.5c0.28,0 0.5,0.22 0.5,0.5c0,0.28 -0.22,0.5 -0.5,0.5h-2.5c-0.28,0 -0.5,-0.22 -0.5,-0.5c0,-0.28 0.22,-0.5 0.5,-0.5zM238.167,0h2.5c0.28,0 0.5,0.22 0.5,0.5c0,0.28 -0.22,0.5 -0.5,0.5h-2.5c-0.28,0 -0.5,-0.22 -0.5,-0.5c0,-0.28 0.22,-0.5 0.5,-0.5zM243.5,0h7.5c0.28,0 0.5,0.22 0.5,0.5c0,0.28 -0.22,0.5 -0.5,0.5h-7.5c-0.28,0 -0.5,-0.22 -0.5,-0.5c0,-0.28 0.22,-0.5 0.5,-0.5z"
                    ></path>
                    <path
                            id="路径 35"
                            style="fill: url(#linear_27); opacity: 100"
                            d="M293.75,6.7h-100.85c-0.188,0 -0.372,-0.05295 -0.531,-0.15279l-9.09,-5.7l0.531,-0.84721v1h-62.52v-1l0.768,0.64089l-9,10.78001c-0.19,0.2276 -0.472,0.3591 -0.768,0.3591h-44.64c-0.2456,0 -0.4826,-0.0904 -0.6658,-0.2539l-6.04,-5.38999l0.6658,-0.74611v1h-61.11c-0.06566,0 -0.13069,-0.00641 -0.19509,-0.01922c-0.0644,-0.01281 -0.12693,-0.03177 -0.18759,-0.0569c-0.06066,-0.02513 -0.11829,-0.05593 -0.17289,-0.09241c-0.0546,-0.03648 -0.10511,-0.07793 -0.15154,-0.12436c-0.04643,-0.04643 -0.08788,-0.09695 -0.12436,-0.15154c-0.03648,-0.05459 -0.06728,-0.11222 -0.09241,-0.17289c-0.02513,-0.06066 -0.0441,-0.12319 -0.05691,-0.18759c-0.01281,-0.0644 -0.01921,-0.12943 -0.01921,-0.19509c0,-0.06566 0.0064,-0.13069 0.01921,-0.19509c0.01281,-0.0644 0.03178,-0.12693 0.05691,-0.18759c0.02513,-0.06067 0.05593,-0.1183 0.09241,-0.17289c0.03648,-0.05459 0.07793,-0.10511 0.12436,-0.15154c0.04643,-0.04643 0.09694,-0.08788 0.15154,-0.12436c0.0546,-0.03648 0.11222,-0.06728 0.17289,-0.09241c0.06066,-0.02513 0.12319,-0.0441 0.18759,-0.05691c0.0644,-0.01281 0.12943,-0.01921 0.19509,-0.01921h61.11c0.2456,0 0.4826,0.09037 0.6658,0.25389l6.04,5.39001l-0.6658,0.7461v-1h44.64v1l-0.768,-0.6409l9,-10.77998c0.19,-0.22757 0.472,-0.35911 0.768,-0.35911h62.52c0.188,0 0.372,0.05295 0.531,0.15279l9.09,5.7l-0.531,0.84721v-1h100.85c0.06533,0 0.13033,0.0064 0.195,0.01921c0.06467,0.01281 0.12733,0.03178 0.188,0.05691c0.06067,0.02513 0.11833,0.05593 0.173,0.09241c0.054,0.03648 0.10433,0.07793 0.151,0.12436c0.04667,0.04643 0.088,0.09695 0.124,0.15154c0.03667,0.05459 0.06767,0.11222 0.093,0.17289c0.02533,0.06066 0.04433,0.12319 0.057,0.18759c0.01267,0.0644 0.019,0.12943 0.019,0.19509c0,0.06566 -0.00633,0.13069 -0.019,0.19509c-0.01267,0.0644 -0.03167,0.12693 -0.057,0.18759c-0.02533,0.06067 -0.05633,0.1183 -0.093,0.17289c-0.036,0.05459 -0.07733,0.10511 -0.124,0.15154c-0.04667,0.04643 -0.097,0.08788 -0.151,0.12436c-0.05467,0.03648 -0.11233,0.06728 -0.173,0.09241c-0.06067,0.02513 -0.12333,0.0441 -0.188,0.05691c-0.06467,0.01281 -0.12967,0.01921 -0.195,0.01921z"
                    ></path>
                    <g opacity="1" transform="translate(126.5 3.5)  rotate(0)">
                        <path
                                id="椭圆形"
                                style="fill: #00fff4; opacity: 1"
                                d="M47,3c0,-1.10457 -0.8954,-2 -2,-2c-1.1046,0 -2,0.89543 -2,2c0,1.10457 0.8954,2 2,2c1.1046,0 2,-0.89543 2,-2zM49,3c0,2.20914 -1.7909,4 -4,4c-2.2091,0 -4,-1.79086 -4,-4c0,-2.20914 1.7909,-4 4,-4c2.2091,0 4,1.79086 4,4z"
                        ></path>
                        <path
                                id="椭圆形备份 4"
                                style="fill: #00fff4; opacity: 1"
                                d="M33,3c0,-1.10457 -0.8954,-2 -2,-2c-1.1046,0 -2,0.89543 -2,2c0,1.10457 0.8954,2 2,2c1.1046,0 2,-0.89543 2,-2zM35,3c0,2.20914 -1.7909,4 -4,4c-2.2091,0 -4,-1.79086 -4,-4c0,-2.20914 1.7909,-4 4,-4c2.2091,0 4,1.79086 4,4z"
                        ></path>
                        <path
                                id="椭圆形备份 6"
                                style="fill: #00fff4; opacity: 1"
                                d="M5,3c0,-1.10457 -0.89543,-2 -2,-2c-1.10457,0 -2,0.89543 -2,2c0,1.10457 0.89543,2 2,2c1.10457,0 2,-0.89543 2,-2zM7,3c0,2.20914 -1.79086,4 -4,4c-2.20914,0 -4,-1.79086 -4,-4c0,-2.20914 1.79086,-4 4,-4c2.20914,0 4,1.79086 4,4z"
                        ></path>
                        <path
                                id="椭圆形备份 5"
                                fill-rule="evenodd"
                                style="fill: #00fff4"
                                opacity="1"
                                d="M20 3C20 1.34 18.66 0 17 0C15.34 0 14 1.34 14 3C14 4.66 15.34 6 17 6C18.66 6 20 4.66 20 3Z"
                        ></path>
                    </g>
                    <path
                            id="椭圆形"
                            style="fill: #00b5d7; opacity: 1"
                            d="M300,5c0,-1.10457 -0.895,-2 -2,-2c-1.105,0 -2,0.89543 -2,2c0,1.10457 0.895,2 2,2c1.105,0 2,-0.89543 2,-2zM304,5c0,3.31371 -2.686,6 -6,6c-3.314,0 -6,-2.68629 -6,-6c0,-3.31371 2.686,-6 6,-6c3.314,0 6,2.68629 6,6z"
                    ></path>
                </g>
            </g>
        </g>
    </g>
    <defs>
        <linearGradient
                id="linear_20"
                x1="99.99999999999996%"
                y1="50%"
                x2="0.7913189395786002%"
                y2="50%"
                gradientUnits="objectBoundingBox"
        >
            <stop offset="0" stop-color="#00E0DB" stop-opacity="1"/>
            <stop
                    offset="0.4974288177241577"
                    stop-color="#00FFFF"
                    stop-opacity="0.16"
            />
            <stop offset="1" stop-color="#00E0DB" stop-opacity="1"/>
        </linearGradient>
        <linearGradient
                id="linear_21"
                x1="99.28558134371089%"
                y1="58.71557137738144%"
                x2="0%"
                y2="58.71557137738144%"
                gradientUnits="objectBoundingBox"
        >
            <stop offset="0" stop-color="#FFFFFF" stop-opacity="1"/>
            <stop
                    offset="0.1420514263564218"
                    stop-color="#FFFFFF"
                    stop-opacity="0.21"
            />
            <stop
                    offset="0.4910637444784616"
                    stop-color="#FFFFFF"
                    stop-opacity="0"
            />
            <stop
                    offset="0.851185456389476"
                    stop-color="#FFFFFF"
                    stop-opacity="0.14"
            />
            <stop offset="1" stop-color="#FFFFFF" stop-opacity="1"/>
        </linearGradient>
        <linearGradient
                id="linear_22"
                x1="99.28558134371089%"
                y1="58.71557137738144%"
                x2="0%"
                y2="58.71557137738144%"
                gradientUnits="objectBoundingBox"
        >
            <stop offset="0" stop-color="#FFFFFF" stop-opacity="1"/>
            <stop
                    offset="0.1420514263564218"
                    stop-color="#FFFFFF"
                    stop-opacity="0.21"
            />
            <stop
                    offset="0.4910637444784616"
                    stop-color="#FFFFFF"
                    stop-opacity="0"
            />
            <stop
                    offset="0.851185456389476"
                    stop-color="#FFFFFF"
                    stop-opacity="0.14"
            />
            <stop offset="1" stop-color="#FFFFFF" stop-opacity="1"/>
        </linearGradient>
        <linearGradient
                id="linear_23"
                x1="-56.79884942849949%"
                y1="0%"
                x2="94.70872961314312%"
                y2="50%"
                gradientUnits="objectBoundingBox"
        >
            <stop offset="0" stop-color="#3D7FFF" stop-opacity="0"/>
            <stop
                    offset="0.3395787193957879"
                    stop-color="#3D75FF"
                    stop-opacity="0.7"
            />
            <stop
                    offset="0.4858896981095661"
                    stop-color="#66FFFF"
                    stop-opacity="1"
            />
            <stop
                    offset="0.6765191366032143"
                    stop-color="#3D76FF"
                    stop-opacity="0.63"
            />
            <stop offset="1" stop-color="#3D7FFF" stop-opacity="0"/>
        </linearGradient>
        <linearGradient
                id="linear_24"
                x1="-56.79884942849949%"
                y1="0%"
                x2="94.70872961314312%"
                y2="50%"
                gradientUnits="objectBoundingBox"
        >
            <stop offset="0" stop-color="#3D7FFF" stop-opacity="0"/>
            <stop
                    offset="0.3395787193957879"
                    stop-color="#3D75FF"
                    stop-opacity="0.7"
            />
            <stop
                    offset="0.4858896981095661"
                    stop-color="#66FFFF"
                    stop-opacity="1"
            />
            <stop
                    offset="0.6765191366032143"
                    stop-color="#3D76FF"
                    stop-opacity="0.63"
            />
            <stop offset="1" stop-color="#3D7FFF" stop-opacity="0"/>
        </linearGradient>
        <linearGradient
                id="linear_25"
                x1="97.26040445563804%"
                y1="100%"
                x2="2.175594278291193%"
                y2="100%"
                gradientUnits="objectBoundingBox"
        >
            <stop offset="0" stop-color="#00B5D7" stop-opacity="0"/>
            <stop
                    offset="0.4814196612313999"
                    stop-color="#00C6D5"
                    stop-opacity="1"
            />
            <stop offset="1" stop-color="#00B5D7" stop-opacity="1"/>
        </linearGradient>
        <linearGradient
                id="linear_26"
                x1="97.26040445563804%"
                y1="100%"
                x2="2.175594278291193%"
                y2="100%"
                gradientUnits="objectBoundingBox"
        >
            <stop offset="0" stop-color="#00B5D7" stop-opacity="0"/>
            <stop
                    offset="0.4814196612313999"
                    stop-color="#00C6D5"
                    stop-opacity="1"
            />
            <stop offset="1" stop-color="#00B5D7" stop-opacity="1"/>
        </linearGradient>
    </defs>
</svg>