<svg xmlns="http://www.w3.org/2000/svg" xmlns:xlink="http://www.w3.org/1999/xlink" width="213.87255859375" height="284.80029296875" viewBox="0 0 213.87255859375 284.80029296875" fill="none"><g opacity="1"  transform="translate(3.87255859375 56.80029296875)  rotate(0)"><g opacity="1"  transform="translate(0 0)  rotate(0)"><g opacity="1"  transform="translate(0 0)  rotate(0)"><path id="路径 17" style="fill:url(#linear_0); opacity:100" d="M57.6137,1.00202l-1.1996,4.63595l-7.7449,-2.00404l1.1996,-4.63595zM54.9746,11.2011l-2.3992,9.2719l-7.7449,-2.004l2.3992,-9.27193zM51.1359,26.0362l-2.3991,9.2719l-7.7449,-2.0041l2.3991,-9.2719zM47.2973,40.8712l-2.3992,9.2719l-7.7449,-2.004l2.3992,-9.2719zM43.4586,55.7063l-2.3991,9.2719l-7.745,-2.0041l2.3992,-9.2719zM39.62,70.5413l-2.3992,9.2719l-7.7449,-2.004l2.3991,-9.2719zM35.7813,85.3764l-2.3992,9.2719l-7.7449,-2.0041l2.3992,-9.2719zM31.9426,100.211l-2.3991,9.272l-7.7449,-2.004l2.3991,-9.2716zM28.104,115.046l-2.3992,9.272l-7.7449,-2.004l2.3992,-9.272zM24.2653,129.882l-2.3991,9.271l-7.745,-2.004l2.3992,-9.272zM20.4267,144.717l-2.3992,9.271l-7.7449,-2.004l2.3992,-9.272zM16.588,159.552l-2.3991,9.272l-7.74496,-2.005l2.39916,-9.271zM12.7494,174.387l-2.3992,9.272l-7.74492,-2.005l2.39916,-9.271zM8.91069,189.222l-2.39915,9.272l-7.74492,-2.004l2.39916,-9.272zM5.07204,204.057l-1.19958,4.636l-7.74492,-2.004l1.19958,-4.636z"></path><path id="路径 17" style="fill:url(#linear_1); opacity:100" d="M155.524,-1.00202l1.2,4.63595l-7.745,2.00404l-1.2,-4.63595zM158.163,9.19707l2.4,9.27193l-7.745,2.004l-2.4,-9.2719zM162.002,24.0321l2.399,9.2719l-7.745,2.0041l-2.399,-9.2719zM165.841,38.8672l2.399,9.2719l-7.745,2.004l-2.399,-9.2719zM169.679,53.7022l2.4,9.2719l-7.745,2.0041l-2.4,-9.2719zM173.518,68.5373l2.399,9.2719l-7.745,2.004l-2.399,-9.2719zM177.357,83.3723l2.399,9.2719l-7.745,2.0041l-2.399,-9.2719zM181.195,98.2074l2.399,9.2716l-7.744,2.004l-2.4,-9.272zM185.034,113.042l2.399,9.272l-7.745,2.004l-2.399,-9.272zM188.873,127.877l2.399,9.272l-7.745,2.004l-2.399,-9.271zM192.711,142.712l2.399,9.272l-7.744,2.004l-2.4,-9.271zM196.55,157.548l2.399,9.271l-7.745,2.005l-2.399,-9.272zM200.389,172.383l2.399,9.271l-7.745,2.005l-2.399,-9.272zM204.227,187.218l2.399,9.272l-7.744,2.004l-2.4,-9.272zM208.066,202.053l1.2,4.636l-7.745,2.004l-1.2,-4.636z"></path><path id="路径 17" style="fill:url(#linear_2); opacity:100" d="M67.0978,21.8024l-0.9599,3.7054l-6.1955,-1.6049l0.9598,-3.7053zM64.9862,29.9542l-1.9197,7.4107l-6.1955,-1.6048l1.9196,-7.4107zM61.9147,41.8114l-1.9196,7.4107l-6.1955,-1.6049l1.9196,-7.4107zM58.8433,53.6685l-1.9197,7.4107l-6.1955,-1.6048l1.9197,-7.4108zM55.7719,65.5257l-1.9197,7.4107l-6.1955,-1.6049l1.9196,-7.4107zM52.7004,77.3828l-1.9196,7.4107l-6.1955,-1.6048l1.9196,-7.4108zM49.629,89.2399l-1.9196,7.4108l-6.1956,-1.6049l1.9197,-7.4107zM46.5576,101.097l-1.9197,7.411l-6.1955,-1.605l1.9197,-7.4108zM43.4861,112.954l-1.9196,7.411l-6.1955,-1.605l1.9196,-7.411zM40.4147,124.811l-1.9196,7.411l-6.1955,-1.605l1.9196,-7.41zM37.3433,136.669l-1.9197,7.41l-6.1955,-1.605l1.9197,-7.41zM34.2719,148.526l-1.9197,7.41l-6.1955,-1.604l1.9196,-7.411zM31.2004,160.383l-1.9196,7.411l-6.1955,-1.605l1.9196,-7.411zM28.129,172.24l-1.9196,7.411l-6.1956,-1.605l1.9197,-7.411zM25.0576,184.097l-0.9598,3.705l-6.1956,-1.604l0.9599,-3.706z"></path><path id="路径 17" style="fill:url(#linear_3); opacity:100" d="M145.098,20.1976l0.96,3.7053l-6.196,1.6049l-0.96,-3.7054zM147.209,28.3494l1.92,7.4107l-6.196,1.6048l-1.919,-7.4107zM150.281,40.2065l1.919,7.4107l-6.195,1.6049l-1.92,-7.4107zM153.352,52.0636l1.92,7.4108l-6.196,1.6048l-1.919,-7.4107zM156.424,63.9208l1.919,7.4107l-6.195,1.6049l-1.92,-7.4107zM159.495,75.7779l1.92,7.4108l-6.196,1.6048l-1.919,-7.4107zM162.567,87.6351l1.919,7.4107l-6.195,1.6049l-1.92,-7.4108zM165.638,99.4922l1.92,7.4108l-6.196,1.605l-1.92,-7.411zM168.709,111.349l1.92,7.411l-6.195,1.605l-1.92,-7.411zM171.781,123.207l1.919,7.41l-6.195,1.605l-1.92,-7.411zM174.852,135.064l1.92,7.41l-6.196,1.605l-1.919,-7.41zM177.924,146.921l1.919,7.411l-6.195,1.604l-1.92,-7.41zM180.995,158.778l1.92,7.411l-6.196,1.605l-1.919,-7.411zM184.067,170.635l1.919,7.411l-6.195,1.605l-1.92,-7.411zM187.138,182.492l0.96,3.706l-6.196,1.604l-0.96,-3.705z"></path></g><g opacity="1"  transform="translate(37.385498046875 0)  rotate(0)"><g opacity="1"  transform="translate(11 0)  rotate(0)"><g id="矩形" filter="url(#filter_10)"><path id="矩形" fill-rule="evenodd" fill="url(#linear_4)" opacity="1" d="M46.8076 124.64L63.1076 124.64L58.3776 0L52.0676 0L46.8076 124.64Z"></path></g><path id="形状结合" fill-rule="evenodd" fill="url(#linear_5)" opacity="1" d="M52.0676,0h6.31l4.3611,114.918c-2.549,-0.547 -5.194,-0.835 -7.9062,-0.835c-2.608,0 -5.1539,0.266 -7.612,0.773z"></path><path id="椭圆形" style="fill:url(#linear_6); opacity:100" d="M106.451,215.04M106.451,215.04c0,-0.48 -0.96867,-1.18433 -2.906,-2.113c-2.575,-1.234 -6.27617,-2.34067 -11.1035,-3.32c-10.47633,-2.12533 -23.14683,-3.188 -38.0115,-3.188c-14.8602,0 -27.52777,1.06267 -38.0027,3.188c-4.82679,0.97933 -8.52772,2.086 -11.10279,3.32c-1.93683,0.92867 -2.90524,1.633 -2.90524,2.113c0,0.48267 0.96871,1.189 2.90614,2.119c2.57465,1.23533 6.27538,2.343 11.10219,3.323c10.47233,2.126 23.1398,3.189 38.0024,3.189c14.86713,0 27.53753,-1.063 38.0112,-3.189c4.82733,-0.98 8.52827,-2.08767 11.1028,-3.323c1.938,-0.93 2.907,-1.63633 2.907,-2.119zM111.289,215.04c0,4.36867 -5.96173,7.763 -17.8852,10.183c-10.79127,2.19067 -23.78253,3.286 -38.9738,3.286c-15.1868,0 -28.17517,-1.09533 -38.9651,-3.286c-11.92278,-2.42 -17.88417,-5.81433 -17.88417,-10.183c0,-4.364 5.96149,-7.75567 17.88447,-10.175c10.7924,-2.18933 23.78067,-3.284 38.9648,-3.284c15.1886,0 28.17977,1.09467 38.9735,3.284c11.92367,2.41933 17.8855,5.811 17.8855,10.175z"></path></g><g opacity="1"  transform="translate(0 77)  rotate(0)"><g id="形状结合" filter="url(#filter_15)"><path id="形状结合" fill-rule="evenodd" fill="url(#linear_7)" opacity="1" d="M65.8469,7.31682c-17.54,0 -33.2805,7.71948 -44.0088,19.94558c8.223,-15.9367 24.8467,-26.83198 44.0171,-26.83198c19.1611,0 35.7808,10.89258 44.0048,26.82598c-10.7298,-12.2227 -26.4705,-19.93958 -44.0131,-19.93958z"></path></g><g id="形状结合" filter="url(#filter_17)"><path id="形状结合" fill-rule="evenodd" fill="url(#linear_8)" opacity="1" d="M65.8469,7.31682c-17.54,0 -33.2805,7.71948 -44.0088,19.94558c8.223,-15.9367 24.8467,-26.83198 44.0171,-26.83198c19.1611,0 35.7808,10.89258 44.0048,26.82598c-10.7298,-12.2227 -26.4705,-19.93958 -44.0131,-19.93958z"></path></g><g id="形状结合" filter="url(#filter_19)"><path id="形状结合" fill-rule="evenodd" fill="url(#linear_9)" opacity="1" d="M65.8469,7.31682c-17.54,0 -33.2805,7.71948 -44.0088,19.94558c8.223,-15.9367 24.8467,-26.83198 44.0171,-26.83198c19.1611,0 35.7808,10.89258 44.0048,26.82598c-10.7298,-12.2227 -26.4705,-19.93958 -44.0131,-19.93958z"></path></g><g opacity="1"  transform="translate(0 0)  rotate(0)"><path id="椭圆形" style="fill:url(#linear_10); opacity:100" d="M123.096,65.8468c0,-31.6177 -25.6315,-57.23883 -57.2491,-57.23883c-31.6121,0 -57.23881,25.62673 -57.23881,57.23883c0,31.6121 25.62671,57.2492 57.23881,57.2492c31.6176,0 57.2491,-25.6316 57.2491,-57.2492zM125.678,65.8468c0,33.0438 -26.7873,59.8312 -59.8311,59.8312c-33.0383,0 -59.8212,-26.7929 -59.8212,-59.8312c0,-33.0384 26.7829,-59.82122 59.8212,-59.82122c33.0438,0 59.8311,26.77732 59.8311,59.82122z"></path><path id="椭圆形" fill-rule="evenodd" style="fill:#36C668" opacity="0.22" d="M99.42 65.8499C99.42 47.3099 84.39 32.2799 65.85 32.2799C47.31 32.2799 32.28 47.3099 32.28 65.8499C32.28 84.3899 47.31 99.4199 65.85 99.4199C84.39 99.4199 99.42 84.3899 99.42 65.8499Z"></path><g opacity="1"  transform="translate(1.331298828125 1.331298828125)  rotate(0)"><g opacity="1"  transform="translate(0 0)  rotate(0)"><g id="路径" filter="url(#filter_26)"><path  id="路径" style="fill:#0BDF69; opacity:1;" d="M96.4195,96.4161c17.6175,-17.6177 17.6175,-46.1817 0,-63.7994c-17.6177,-17.6177 -46.1817,-17.6177 -63.7994,0c-17.6178,17.6177 -17.6177,46.1817 0,63.7994l-0.717,0.717c-18.0137,-18.0137 -18.0137,-47.2197 0,-65.2334c18.0137,-18.0137 47.2197,-18.0137 65.2334,0c18.0135,18.0137 18.0135,47.2197 0,65.2334z"></path></g><g id="路径" filter="url(#filter_28)"><path  id="路径" style="fill:#0BDF69; opacity:0.23;" d="M96.3215,96.3181c17.5635,-17.5636 17.5635,-46.0398 0,-63.6034c-17.5636,-17.5636 -46.0398,-17.5636 -63.6034,0c-17.5636,17.5636 -17.5636,46.0398 0,63.6034l-0.913,0.913c-18.0679,-18.0678 -18.0679,-47.3616 0,-65.4294c18.0678,-18.0678 47.3616,-18.0678 65.4294,0c18.0675,18.0678 18.0675,47.3616 0,65.4294z"></path></g><g id="路径" filter="url(#filter_30)"><path  id="路径" style="fill:#0BDF69; opacity:1;" d="M96.4195,96.4161c17.6175,-17.6177 17.6175,-46.1817 0,-63.7994c-17.6177,-17.6177 -46.1817,-17.6177 -63.7994,0c-17.6178,17.6177 -17.6177,46.1817 0,63.7994l-0.717,0.717c-18.0137,-18.0137 -18.0137,-47.2197 0,-65.2334c18.0137,-18.0137 47.2197,-18.0137 65.2334,0c18.0135,18.0137 18.0135,47.2197 0,65.2334z"></path></g></g><g opacity="1"  transform="translate(0 0)  rotate(0)"><path  id="路径" style="fill:#0BDF69; opacity:1;" d="M96.4195,96.4161c17.6175,-17.6177 17.6175,-46.1817 0,-63.7994c-17.6177,-17.6177 -46.1817,-17.6177 -63.7994,0c-17.6178,17.6177 -17.6177,46.1817 0,63.7994l-0.717,0.717c-18.0137,-18.0137 -18.0137,-47.2197 0,-65.2334c18.0137,-18.0137 47.2197,-18.0137 65.2334,0c18.0135,18.0137 18.0135,47.2197 0,65.2334z"></path><path  id="路径" style="fill:#0BDF69; opacity:1;" d="M96.4195,96.4161c17.6175,-17.6177 17.6175,-46.1817 0,-63.7994c-17.6177,-17.6177 -46.1817,-17.6177 -63.7994,0c-17.6178,17.6177 -17.6177,46.1817 0,63.7994l-0.717,0.717c-18.0137,-18.0137 -18.0137,-47.2197 0,-65.2334c18.0137,-18.0137 47.2197,-18.0137 65.2334,0c18.0135,18.0137 18.0135,47.2197 0,65.2334z"></path></g></g><path id="椭圆形" style="fill:url(#linear_11); opacity:100" d="M130.256,65.64c0,-35.6864 -28.93,-64.626 -64.616,-64.626c-35.6919,0 -64.626,28.9341 -64.626,64.626c0,35.692 28.9341,64.616 64.626,64.616c35.686,0 64.616,-28.93 64.616,-64.616zM132.284,65.64c0,36.806 -29.838,66.644 -66.644,66.644c-36.812,0 -66.654,-29.832 -66.654,-66.644c0,-36.812 29.842,-66.654 66.654,-66.654c36.806,0 66.644,29.8475 66.644,66.654z"></path><path id="椭圆形" style="fill:url(#linear_12); opacity:100" d="M115.19,65.634c0,-27.3691 -22.187,-49.556 -49.556,-49.556c-27.3691,0 -49.556,22.1869 -49.556,49.556c0,27.369 22.1869,49.556 49.556,49.556c27.369,0 49.556,-22.187 49.556,-49.556zM117.218,65.634c0,28.489 -23.095,51.584 -51.584,51.584c-28.4891,0 -51.584,-23.095 -51.584,-51.584c0,-28.4891 23.0949,-51.584 51.584,-51.584c28.489,0 51.584,23.0949 51.584,51.584z"></path><path  id="椭圆形" style="fill:#135B6B; opacity:1;" d="M105.3,65.8536c0,-21.7855 -17.661,-39.446 -39.4464,-39.446c-21.7855,0 -39.446,17.6605 -39.446,39.446c0,21.7854 17.6605,39.4464 39.446,39.4464c21.7854,0 39.4464,-17.661 39.4464,-39.4464zM107.328,65.8536c0,22.9054 -18.569,41.4744 -41.4744,41.4744c-22.9055,0 -41.474,-18.569 -41.474,-41.4744c0,-22.9055 18.5685,-41.474 41.474,-41.474c22.9054,0 41.4744,18.5685 41.4744,41.474z"></path><path  id="椭圆形" style="fill:#35D9C3; opacity:0.18;" d="M100.994,65.8475c0,-19.4106 -15.7359,-35.136 -35.1465,-35.136c-19.4051,0 -35.136,15.7309 -35.136,35.136c0,19.4051 15.7309,35.1465 35.136,35.1465c19.4106,0 35.1465,-15.7359 35.1465,-35.1465zM103.022,65.8475c0,20.5306 -16.6439,37.1745 -37.1745,37.1745c-20.5251,0 -37.164,-16.6494 -37.164,-37.1745c0,-20.5251 16.6389,-37.164 37.164,-37.164c20.5306,0 37.1745,16.6334 37.1745,37.164z"></path><path  id="椭圆形" style="fill:#0BDF69; opacity:1;" d="M102.712,65.856c0,-20.3551 -16.5012,-36.866 -36.8562,-36.866c-20.3605,0 -36.866,16.5054 -36.866,36.866c0,20.3605 16.5055,36.856 36.866,36.856c20.355,0 36.8562,-16.501 36.8562,-36.856zM104.74,65.856c0,21.475 -17.4091,38.884 -38.8842,38.884c-21.4805,0 -38.894,-17.4035 -38.894,-38.884c0,-21.4806 17.4135,-38.894 38.894,-38.894c21.4751,0 38.8842,17.4189 38.8842,38.894z"></path><path id="椭圆形" fill-rule="evenodd" style="fill:#36C668" opacity="0.22" d="M95.114 65.8539C95.114 49.6939 82.014 36.5839 65.854 36.5839C49.694 36.5839 36.584 49.6939 36.584 65.8539C36.584 82.0139 49.694 95.1139 65.854 95.1139C82.014 95.1139 95.114 82.0139 95.114 65.8539Z"></path><path  id="椭圆形" style="fill:#44D7B6; opacity:1;" d="M85.1322,46.1836M85.1322,46.1836c-0.193,-0.18933 -0.3887,-0.37577 -0.5871,-0.5593l2.3383,-2.5275c0.22307,0.2064 0.44307,0.416 0.66,0.6288zM65.2943,38.311M65.2943,38.311c-0.27447,0.00547 -0.5485,0.01497 -0.8221,0.0285l-0.1699,-3.439c0.3074,-0.0152 0.6152,-0.02587 0.9234,-0.032zM45.8054,46.9643M45.8054,46.9643c-0.18547,0.19673 -0.368,0.39613 -0.5476,0.5982l-2.5735,-2.2875c0.20187,-0.22713 0.40703,-0.45127 0.6155,-0.6724zM38.3275,66.9641M38.3275,66.9641c0.01087,0.27307 0.0257,0.54567 0.0445,0.8178l-3.435,0.2375c-0.02113,-0.3058 -0.03777,-0.6121 -0.0499,-0.9189zM47.3656,86.2678M47.3656,86.2678c0.20047,0.18153 0.4035,0.36007 0.6091,0.5356l-2.2356,2.6187c-0.23113,-0.19733 -0.45937,-0.39803 -0.6847,-0.6021zM67.5183,93.3428M67.5183,93.3428c0.27167,-0.01613 0.54277,-0.03627 0.8133,-0.0604l0.3055,3.4296c-0.3042,0.02713 -0.6089,0.0498 -0.9141,0.068zM86.6342,83.9253M86.6342,83.9253c0.1776,-0.20407 0.35213,-0.41063 0.5236,-0.6197l2.6622,2.1836c-0.1928,0.23507 -0.38903,0.4673 -0.5887,0.6967zM93.3924,65.8539M93.3924,65.8539c0,-0.2758 -0.00407,-0.55127 -0.0122,-0.8264l3.4417,-0.1013c0.00913,0.3088 0.0137,0.61803 0.0137,0.9277z"></path><path id="椭圆形" fill-rule="evenodd" style="fill:#36C668" opacity="0.22" d="M89.9488 65.8487C89.9488 52.5387 79.1588 41.7487 65.8488 41.7487C52.5388 41.7487 41.7488 52.5387 41.7488 65.8487C41.7488 79.1587 52.5388 89.9487 65.8488 89.9487C79.1588 89.9487 89.9488 79.1587 89.9488 65.8487Z"></path><path id="椭圆形" fill-rule="evenodd" fill="url(#linear_13)" opacity="1" d="M86.0823 65.8523C86.0823 54.6823 77.0223 45.6223 65.8523 45.6223C54.6823 45.6223 45.6223 54.6823 45.6223 65.8523C45.6223 77.0223 54.6823 86.0823 65.8523 86.0823C77.0223 86.0823 86.0823 77.0223 86.0823 65.8523Z"></path></g></g></g></g></g><defs><linearGradient id="linear_0" x1="105.49987381349814%" y1="0%" x2="2.220446049250313e-14%" y2="0%" gradientUnits="objectBoundingBox"><stop offset="0" stop-color="#1552CA" stop-opacity="0" /><stop offset="0.5175736483649457" stop-color="#66FFFF" stop-opacity="1" /><stop offset="1" stop-color="#1552CA" stop-opacity="0" /></linearGradient><linearGradient id="linear_1" x1="105.49987381349814%" y1="0%" x2="2.220446049250313e-14%" y2="0%" gradientUnits="objectBoundingBox"><stop offset="0" stop-color="#1552CA" stop-opacity="0" /><stop offset="0.5175736483649457" stop-color="#66FFFF" stop-opacity="1" /><stop offset="1" stop-color="#1552CA" stop-opacity="0" /></linearGradient><linearGradient id="linear_2" x1="105.49987381349814%" y1="0%" x2="2.220446049250313e-14%" y2="0%" gradientUnits="objectBoundingBox"><stop offset="0" stop-color="#1552CA" stop-opacity="0" /><stop offset="0.5175736483649457" stop-color="#66FFFF" stop-opacity="1" /><stop offset="1" stop-color="#1552CA" stop-opacity="0" /></linearGradient><linearGradient id="linear_3" x1="105.49987381349814%" y1="0%" x2="2.220446049250313e-14%" y2="0%" gradientUnits="objectBoundingBox"><stop offset="0" stop-color="#1552CA" stop-opacity="0" /><stop offset="0.5175736483649457" stop-color="#66FFFF" stop-opacity="1" /><stop offset="1" stop-color="#1552CA" stop-opacity="0" /></linearGradient><linearGradient id="linear_4" x1="50%" y1="7.501516639407929%" x2="51%" y2="69.41129559521598%" gradientUnits="objectBoundingBox"><stop offset="0" stop-color="#3D7FFF" stop-opacity="0" /><stop offset="1" stop-color="#46E3FA" stop-opacity="1" /></linearGradient><filter id="filter_10" x="18.40749321971112" y="-28.40012396778888" width="73.10402280597506" height="181.44523646087336" filterUnits="userSpaceOnUse" color-interpolation-filters="sRGB"><feFlood flood-opacity="0" result="BackgroundImageFix"/>
          <feBlend mode="normal" in="SourceGraphic" in2="BackgroundImageFix" result="shape"/>
          <feGaussianBlur stdDeviation="14.20006198389444" result="effect1_foregroundBlur" /></filter><linearGradient id="linear_5" x1="50%" y1="7.501516639407929%" x2="51%" y2="69.41129559521598%" gradientUnits="objectBoundingBox"><stop offset="0" stop-color="#3D7FFF" stop-opacity="0" /><stop offset="1" stop-color="#46E3FA" stop-opacity="1" /></linearGradient><linearGradient id="linear_6" x1="50%" y1="0%" x2="51%" y2="100%" gradientUnits="objectBoundingBox"><stop offset="0" stop-color="#0E5FFF" stop-opacity="0" /><stop offset="0.09582685519808906" stop-color="#4035FF" stop-opacity="0" /><stop offset="1" stop-color="#00E0DB" stop-opacity="1" /></linearGradient><linearGradient id="linear_7" x1="100%" y1="8.06073895079131%" x2="101%" y2="31.45196779616395%" gradientUnits="objectBoundingBox"><stop offset="0" stop-color="#00EFC5" stop-opacity="1" /><stop offset="1" stop-color="#3D7FFF" stop-opacity="1" /></linearGradient><filter id="filter_15" x="6.343772050083793" y="-15.063942793666207" width="119.01012588274257" height="57.82072616350429" filterUnits="userSpaceOnUse" color-interpolation-filters="sRGB"><feFlood flood-opacity="0" result="BackgroundImageFix"/>
          <feBlend mode="normal" in="SourceGraphic" in2="BackgroundImageFix" result="shape"/>
          <feGaussianBlur stdDeviation="7.747181357770604" result="effect1_foregroundBlur" /></filter><linearGradient id="linear_8" x1="100%" y1="8.06073895079131%" x2="101%" y2="31.45196779616395%" gradientUnits="objectBoundingBox"><stop offset="0" stop-color="#00EFC5" stop-opacity="1" /><stop offset="1" stop-color="#3D7FFF" stop-opacity="1" /></linearGradient><filter id="filter_17" x="6.343772050083793" y="-15.063942793666207" width="119.01012588274257" height="57.82072616350429" filterUnits="userSpaceOnUse" color-interpolation-filters="sRGB"><feFlood flood-opacity="0" result="BackgroundImageFix"/>
          <feBlend mode="normal" in="SourceGraphic" in2="BackgroundImageFix" result="shape"/>
          <feGaussianBlur stdDeviation="7.747181357770604" result="effect1_foregroundBlur" /></filter><linearGradient id="linear_9" x1="100%" y1="8.06073895079131%" x2="101%" y2="31.45196779616395%" gradientUnits="objectBoundingBox"><stop offset="0" stop-color="#00EFC5" stop-opacity="1" /><stop offset="1" stop-color="#3D7FFF" stop-opacity="1" /></linearGradient><filter id="filter_19" x="6.343772050083793" y="-15.063942793666207" width="119.01012588274257" height="57.82072616350429" filterUnits="userSpaceOnUse" color-interpolation-filters="sRGB"><feFlood flood-opacity="0" result="BackgroundImageFix"/>
          <feBlend mode="normal" in="SourceGraphic" in2="BackgroundImageFix" result="shape"/>
          <feGaussianBlur stdDeviation="7.747181357770604" result="effect1_foregroundBlur" /></filter><linearGradient id="linear_10" x1="50%" y1="0%" x2="51%" y2="85.35613543016308%" gradientUnits="objectBoundingBox"><stop offset="0" stop-color="#66FFFF" stop-opacity="1" /><stop offset="0.3891873245490683" stop-color="#060C2A" stop-opacity="1" /><stop offset="0.7135669421091595" stop-color="#063561" stop-opacity="1" /><stop offset="1" stop-color="#06487B" stop-opacity="0" /></linearGradient><filter id="filter_26" x="63.658977461983824" y="-0.8607979286411782" width="92.96617629324724" height="92.96617629324724" filterUnits="userSpaceOnUse" color-interpolation-filters="sRGB"><feFlood flood-opacity="0" result="BackgroundImageFix"/>
          <feBlend mode="normal" in="SourceGraphic" in2="BackgroundImageFix" result="shape"/>
          <feGaussianBlur stdDeviation="0.4303989643205891" result="effect1_foregroundBlur" /></filter><filter id="filter_28" x="62.79817953334264" y="-1.7215958572823569" width="94.68777215052961" height="94.68777215052961" filterUnits="userSpaceOnUse" color-interpolation-filters="sRGB"><feFlood flood-opacity="0" result="BackgroundImageFix"/>
          <feBlend mode="normal" in="SourceGraphic" in2="BackgroundImageFix" result="shape"/>
          <feGaussianBlur stdDeviation="0.8607979286411784" result="effect1_foregroundBlur" /></filter><filter id="filter_30" x="61.07658367606029" y="-3.443191714564712" width="98.13096386509432" height="98.13096386509432" filterUnits="userSpaceOnUse" color-interpolation-filters="sRGB"><feFlood flood-opacity="0" result="BackgroundImageFix"/>
          <feBlend mode="normal" in="SourceGraphic" in2="BackgroundImageFix" result="shape"/>
          <feGaussianBlur stdDeviation="1.721595857282356" result="effect1_foregroundBlur" /></filter><linearGradient id="linear_11" x1="0%" y1="52.17096935043006%" x2="100%" y2="50%" gradientUnits="objectBoundingBox"><stop offset="0" stop-color="#66FFFF" stop-opacity="1" /><stop offset="0.1415483414485586" stop-color="#0BDF69" stop-opacity="0" /><stop offset="0.858772541632243" stop-color="#0BDF69" stop-opacity="0" /><stop offset="1" stop-color="#66FFFF" stop-opacity="1" /></linearGradient><linearGradient id="linear_12" x1="50%" y1="0%" x2="51%" y2="100%" gradientUnits="objectBoundingBox"><stop offset="0" stop-color="#2B94A4" stop-opacity="1" /><stop offset="1" stop-color="#135B6B" stop-opacity="0" /></linearGradient><linearGradient id="linear_13" x1="81.78977272727259%" y1="100%" x2="82.78977272727259%" y2="15.054399763083026%" gradientUnits="objectBoundingBox"><stop offset="0" stop-color="#07BA74" stop-opacity="1" /><stop offset="1" stop-color="#88DB52" stop-opacity="1" /></linearGradient></defs></svg>