<svg xmlns="http://www.w3.org/2000/svg" xmlns:xlink="http://www.w3.org/1999/xlink" width="24" height="24" viewBox="0 0 24 24" fill="none"><g opacity="1"  transform="translate(0 0)  rotate(0)"><path id="路径" fill-rule="evenodd" style="fill:#00E0DB" opacity="1" d="M3.21 9.35L0 9.61L2.87 11.08C2.84 11.38 2.82 11.69 2.82 12C2.82 12.31 2.84 12.62 2.87 12.92L0 14.39L3.21 14.65C3.39 15.24 3.63 15.81 3.91 16.34L1.83 18.8L4.9 17.81C5.28 18.28 5.72 18.72 6.19 19.1L5.2 22.17L7.66 20.09C8.19 20.37 8.76 20.61 9.35 20.79L9.61 24L11.08 21.13C11.38 21.16 11.69 21.18 12 21.18C12.31 21.18 12.62 21.16 12.92 21.13L14.39 24L14.65 20.79C15.24 20.61 15.81 20.37 16.34 20.09L18.8 22.17L17.81 19.1C18.28 18.72 18.72 18.28 19.1 17.81L22.17 18.8L20.09 16.34C20.37 15.81 20.61 15.24 20.79 14.65L24 14.39L21.13 12.92C21.16 12.62 21.18 12.31 21.18 12C21.18 11.69 21.16 11.39 21.13 11.08L24 9.61L20.79 9.35C20.61 8.76 20.37 8.19 20.09 7.66L22.17 5.2L19.1 6.19C18.72 5.72 18.28 5.28 17.81 4.9L18.8 1.83L16.34 3.91C15.81 3.63 15.24 3.39 14.65 3.21L14.39 0L12.92 2.87C12.62 2.84 12.31 2.82 12 2.82C11.69 2.82 11.39 2.84 11.08 2.87L9.61 0L9.35 3.21C8.76 3.39 8.19 3.63 7.66 3.91L5.2 1.83L6.19 4.9C5.72 5.28 5.28 5.72 4.9 6.19L1.83 5.2L3.91 7.66C3.63 8.19 3.39 8.76 3.21 9.35Z"></path><path id="椭圆形" fill-rule="evenodd" style="fill:#11357D" opacity="1" d="M12.1 6C8.73 6 6 8.73 6 12.1C6 15.47 8.73 18.2 12.1 18.2C15.47 18.2 18.2 15.47 18.2 12.1C18.2 8.73 15.47 6 12.1 6Z"></path></g></svg>