<svg xmlns="http://www.w3.org/2000/svg" xmlns:xlink="http://www.w3.org/1999/xlink" width="393" height="52.0018310546875" viewBox="0 0 393 52.0018310546875" fill="none"><g opacity="1"  transform="translate(0 0.5)  rotate(0)"><path id="矩形" fill-rule="evenodd" style="fill:#094B7C" opacity="0.45" d="M2 51L391 51L391 0L2 0L2 51Z"></path><path  id="路径 10" style="fill:#67D0F2; opacity:1;" d="M1.70728 17.26L1.70728 -0.5L390.707 -0.5L390.707 17.26L389.707 17.26L389.707 0L390.207 0L390.207 0.5L2.20728 0.5L2.20728 0L2.70728 0L2.70728 17.26L1.70728 17.26Z"></path><path id="椭圆形" fill-rule="evenodd" style="fill:#67D0F2" opacity="1" d="M390.5 14.5778C389.12 14.5778 388 15.6978 388 17.0778C388 18.4578 389.12 19.5778 390.5 19.5778C391.88 19.5778 393 18.4578 393 17.0778C393 15.6978 391.88 14.5778 390.5 14.5778Z"></path><path id="椭圆形" fill-rule="evenodd" style="fill:#67D0F2" opacity="1" d="M2.5 15C1.12 15 0 16.12 0 17.5C0 18.88 1.12 20 2.5 20C3.88 20 5 18.88 5 17.5C5 16.12 3.88 15 2.5 15Z"></path><path  id="路径 10" style="fill:#67D0F2; opacity:1;" d="M2.70728 33.7418L2.70728 51.0018L2.20728 51.0018L2.20728 50.5018L390.207 50.5018L390.207 51.0018L389.707 51.0018L389.707 33.7418L390.707 33.7418L390.707 51.5018L1.70728 51.5018L1.70728 33.7418L2.70728 33.7418Z"></path><path id="椭圆形" fill-rule="evenodd" style="fill:#67D0F2" opacity="1" d="M390.5 31.4222C389.12 31.4222 388 32.5422 388 33.9222C388 35.3022 389.12 36.4222 390.5 36.4222C391.88 36.4222 393 35.3022 393 33.9222C393 32.5422 391.88 31.4222 390.5 31.4222Z"></path><path id="椭圆形" fill-rule="evenodd" style="fill:#67D0F2" opacity="1" d="M2.5 31C1.12 31 0 32.12 0 33.5C0 34.88 1.12 36 2.5 36C3.88 36 5 34.88 5 33.5C5 32.12 3.88 31 2.5 31Z"></path></g></svg>