<svg xmlns="http://www.w3.org/2000/svg" xmlns:xlink="http://www.w3.org/1999/xlink" width="1920" height="206" viewBox="0 0 1920 206" fill="none"><g opacity="1"  transform="translate(0 2)  rotate(0)"><g opacity="1"  transform="translate(0 0)  rotate(0)"><g opacity="1"  transform="translate(0 0)  rotate(0)"><g opacity="1"  transform="translate(81 0)  rotate(0)"><g opacity="1"  transform="translate(81 0)  rotate(0)"><g opacity="1"  transform="translate(81 0)  rotate(0)"><path id="路径 10" style="fill:url(#linear_0); opacity:100" d="M400.999,46.17h-189.007l-37.176,-13.2867l0.673,-1.8833v2h-337.14v-4h337.487l37.176,13.2867l-0.673,1.8833v-2h188.66z"></path><path id="路径 10" style="fill:url(#linear_1); opacity:100" d="M400.999,35.8366h-189.007l-37.176,-13.2866l0.673,-1.8834v2h-337.14v-4h337.487l37.176,13.2867l-0.673,1.8833v-2h188.66z"></path><path id="路径 10" style="fill:url(#linear_2); opacity:100" d="M400.999,25.5034h-189.007l-37.176,-13.2867l0.673,-1.8833v2h-337.14v-4.00003h337.487l37.176,13.28663l-0.673,1.8834v-2h188.66z"></path><path id="路径 10" style="fill:url(#linear_3); opacity:100" d="M400.999,15.17h-189.007l-37.176,-13.28667l0.673,-1.88333v2h-337.14v-4h337.487l37.176,13.2867l-0.673,1.8833v-2h188.66z"></path></g></g><g opacity="1"  transform="translate(1277 0)  rotate(0)"><path id="路径 10" style="fill:url(#linear_4); opacity:100" d="M-81,42.17h188.66v2l-0.673,-1.8833l37.176,-13.2867h337.487v4h-337.14v-2l0.673,1.8833l-37.176,13.2867h-189.007z"></path><path id="路径 10" style="fill:url(#linear_5); opacity:100" d="M-81,31.8366h188.66v2l-0.673,-1.8833l37.176,-13.2867h337.487v4h-337.14v-2l0.673,1.8834l-37.176,13.2866h-189.007z"></path><path id="路径 10" style="fill:url(#linear_6); opacity:100" d="M-81,21.5034h188.66v2l-0.673,-1.8834l37.176,-13.28663h337.487v4.00003h-337.14v-2l0.673,1.8833l-37.176,13.2867h-189.007z"></path><path id="路径 10" style="fill:url(#linear_7); opacity:100" d="M-81,11.17h188.66v2l-0.673,-1.8833l37.176,-13.2867h337.487v4h-337.14v-2l0.673,1.88333l-37.176,13.28667h-189.007z"></path></g></g><path id="路径 14备份" style="fill:url(#linear_8); opacity:100" d="M750,77.01l419.5,0.005v2.97l-419.5,-0.005z"></path><path id="矩形" fill-rule="evenodd" fill="url(#linear_9)" opacity="1" d="M893 80L1027 80L1027 77L893 77L893 80Z"></path><path id="路径 32" style="fill:url(#linear_10); opacity:100" d="M0,44h418.537l32.218,11.0541l-0.325,0.9459v-1h201.066l24.295,25.3075l-0.721,0.6925v-1h576.58v1l-0.75,-0.6652l22.57,-25.3348h193.22v1l-0.31,-0.9519l34.32,-11.0481h419.3v2h-419.14v-1l0.31,0.9519l-34.32,11.0481h-192.93v-1l0.75,0.6652l-22.57,25.3348h-577.456l-24.295,-25.3075l0.721,-0.6925v1h-200.807l-32.218,-11.0541l0.325,-0.9459v1h-418.37z"></path><g opacity="1"  transform="translate(582 68)  rotate(0)"><g opacity="1"  transform="translate(582 68)  rotate(0)"><g opacity="1"  transform="translate(582 68)  rotate(0)"><path id="矩形" fill-rule="evenodd" style="fill:#00B5D7" opacity="1" d="M-1140 -136L-1140 -130L-1134 -130L-1134 -136L-1140 -136Z"></path><path id="矩形" fill-rule="evenodd" style="fill:#0D58EC" opacity="1" d="M-1164 -136L-1164 -130L-1158 -130L-1158 -136L-1164 -136Z"></path><path id="矩形" fill-rule="evenodd" style="fill:#3C7DFB" opacity="1" d="M-1152 -136L-1152 -130L-1146 -130L-1146 -136L-1152 -136Z"></path></g></g><g opacity="1"  transform="translate(1309 68)  rotate(0)"><path id="矩形" fill-rule="evenodd" style="fill:#00B5D7" opacity="1" d="M-582 -62L-576 -62L-576 -68L-582 -68L-582 -62Z"></path><path id="矩形" fill-rule="evenodd" style="fill:#0D58EC" opacity="1" d="M-558 -62L-552 -62L-552 -68L-558 -68L-558 -62Z"></path><path id="矩形" fill-rule="evenodd" style="fill:#3C7DFB" opacity="1" d="M-570 -62L-564 -62L-564 -68L-570 -68L-570 -62Z"></path></g></g></g></g><g opacity="1"  transform="translate(623 62)  rotate(0)"><g opacity="1"  transform="translate(623 62)  rotate(0)"><path id="矩形" fill-rule="evenodd" fill="url(#linear_11)" opacity="1" d="M-606.97 -43L-588.97 -43L-604.5 -62L-622.5 -62L-606.97 -43Z"></path></g><g opacity="1"  transform="translate(1262 62)  rotate(0)"><path id="矩形" fill-rule="evenodd" fill="url(#linear_12)" opacity="1" d="M-606.502 -62L-622.032 -43L-604.032 -43L-588.502 -62L-606.502 -62Z"></path></g></g></g><defs><linearGradient id="linear_0" x1="99.26344434053651%" y1="24.59540472426731%" x2="1.4786091657835954%" y2="100%" gradientUnits="objectBoundingBox"><stop offset="0" stop-color="#0A3B3F" stop-opacity="0" /><stop offset="0.6343020992679196" stop-color="#3D7FFF" stop-opacity="1" /><stop offset="1" stop-color="#004B48" stop-opacity="0" /></linearGradient><linearGradient id="linear_1" x1="99.26344434053651%" y1="24.59540472426731%" x2="1.4786091657835954%" y2="100%" gradientUnits="objectBoundingBox"><stop offset="0" stop-color="#0A3B3F" stop-opacity="0" /><stop offset="0.6343020992679196" stop-color="#3D7FFF" stop-opacity="1" /><stop offset="1" stop-color="#004B48" stop-opacity="0" /></linearGradient><linearGradient id="linear_2" x1="99.26344434053651%" y1="24.59540472426731%" x2="1.4786091657835954%" y2="100%" gradientUnits="objectBoundingBox"><stop offset="0" stop-color="#0A3B3F" stop-opacity="0" /><stop offset="0.6343020992679196" stop-color="#3D7FFF" stop-opacity="1" /><stop offset="1" stop-color="#004B48" stop-opacity="0" /></linearGradient><linearGradient id="linear_3" x1="99.26344434053651%" y1="24.59540472426731%" x2="1.4786091657835954%" y2="100%" gradientUnits="objectBoundingBox"><stop offset="0" stop-color="#0A3B3F" stop-opacity="0" /><stop offset="0.6343020992679196" stop-color="#3D7FFF" stop-opacity="1" /><stop offset="1" stop-color="#004B48" stop-opacity="0" /></linearGradient><linearGradient id="linear_4" x1="99.26344434053651%" y1="24.59540472426731%" x2="1.4786091657835954%" y2="100%" gradientUnits="objectBoundingBox"><stop offset="0" stop-color="#0A3B3F" stop-opacity="0" /><stop offset="0.6343020992679196" stop-color="#3D7FFF" stop-opacity="1" /><stop offset="1" stop-color="#004B48" stop-opacity="0" /></linearGradient><linearGradient id="linear_5" x1="99.26344434053651%" y1="24.59540472426731%" x2="1.4786091657835954%" y2="100%" gradientUnits="objectBoundingBox"><stop offset="0" stop-color="#0A3B3F" stop-opacity="0" /><stop offset="0.6343020992679196" stop-color="#3D7FFF" stop-opacity="1" /><stop offset="1" stop-color="#004B48" stop-opacity="0" /></linearGradient><linearGradient id="linear_6" x1="99.26344434053651%" y1="24.59540472426731%" x2="1.4786091657835954%" y2="100%" gradientUnits="objectBoundingBox"><stop offset="0" stop-color="#0A3B3F" stop-opacity="0" /><stop offset="0.6343020992679196" stop-color="#3D7FFF" stop-opacity="1" /><stop offset="1" stop-color="#004B48" stop-opacity="0" /></linearGradient><linearGradient id="linear_7" x1="99.26344434053651%" y1="24.59540472426731%" x2="1.4786091657835954%" y2="100%" gradientUnits="objectBoundingBox"><stop offset="0" stop-color="#0A3B3F" stop-opacity="0" /><stop offset="0.6343020992679196" stop-color="#3D7FFF" stop-opacity="1" /><stop offset="1" stop-color="#004B48" stop-opacity="0" /></linearGradient><linearGradient id="linear_8" x1="0%" y1="50%" x2="100%" y2="0%" gradientUnits="objectBoundingBox"><stop offset="0" stop-color="#C8C8C8" stop-opacity="0" /><stop offset="0.5127234825721154" stop-color="#0E5FFF" stop-opacity="1" /><stop offset="1" stop-color="#979797" stop-opacity="0" /></linearGradient><linearGradient id="linear_9" x1="99.1250932406106%" y1="50%" x2="1.4505026223776252%" y2="50.000000000000014%" gradientUnits="objectBoundingBox"><stop offset="0" stop-color="#FFFFFF" stop-opacity="0" /><stop offset="0.5019940996503497" stop-color="#66FFFF" stop-opacity="1" /><stop offset="1" stop-color="#FFFFFF" stop-opacity="0" /></linearGradient><linearGradient id="linear_10" x1="0%" y1="0%" x2="100%" y2="0%" gradientUnits="objectBoundingBox"><stop offset="0" stop-color="#0E5FFF" stop-opacity="0" /><stop offset="0.3879124932861764" stop-color="#0E5FFF" stop-opacity="1" /><stop offset="0.4925941538536032" stop-color="#00F8C1" stop-opacity="1" /><stop offset="0.6042461065266307" stop-color="#0E5FFF" stop-opacity="1" /><stop offset="1" stop-color="#0E5FFF" stop-opacity="0" /></linearGradient><linearGradient id="linear_11" x1="26.620678115052243%" y1="143.09470414883805%" x2="100%" y2="99.99999999999858%" gradientUnits="objectBoundingBox"><stop offset="0" stop-color="#0E5FFF" stop-opacity="1" /><stop offset="1" stop-color="#00FFFF" stop-opacity="1" /></linearGradient><linearGradient id="linear_12" x1="73.37932188494776%" y1="143.09470414883805%" x2="0%" y2="99.99999999999858%" gradientUnits="objectBoundingBox"><stop offset="0" stop-color="#0E5FFF" stop-opacity="1" /><stop offset="1" stop-color="#00FFFF" stop-opacity="1" /></linearGradient></defs></svg>