<svg xmlns="http://www.w3.org/2000/svg" xmlns:xlink="http://www.w3.org/1999/xlink" width="262.57568359375" height="1070.8876953125" viewBox="0 0 262.57568359375 1070.8876953125" fill="none"><g opacity="1"  transform="translate(0.88232421875 0.8878173828125)  rotate(0)"><g opacity="1"  transform="translate(0 179.6961669921875)  rotate(0)"><g opacity="1"  transform="translate(0 0)  rotate(0)"><path id="路径" style="fill:url(#linear_0); opacity:100" d="M57.5019,-178.816l-55.45003,49.88c-0.35021,0.315 -0.55615,0.765 -0.55615,1.236v75.7c0,0.4731 0.2047,0.9197 0.55637,1.2362l55.44981,49.87977l-1.5905,1.76806l-55.45021,-49.88023c-0.85278,-0.7675 -1.34363,-1.8565 -1.34363,-3.0038v-75.7c0,-1.146 0.49208,-2.237 1.34385,-3.004l55.44999,-49.88z"></path><path id="路径" style="fill:url(#linear_1); opacity:100" d="M55.0063,-165.695l-2.0584,1.977l-3.9531,-4.117l2.0585,-1.976zM51.2325,-162.071l-2.0585,1.977l-3.9531,-4.117l2.0585,-1.977zM47.4586,-158.447l-2.0585,1.976l-3.9531,-4.117l2.0585,-1.976zM43.6847,-154.824l-2.0585,1.977l-3.9531,-4.117l2.0585,-1.977zM39.9108,-151.2l-2.0584,1.977l-3.9531,-4.117l2.0584,-1.977zM36.137,-147.576l-2.0585,1.976l-3.9531,-4.117l2.0585,-1.976zM32.3631,-143.953l-2.0585,1.977l-3.9531,-4.117l2.0585,-1.977zM28.5892,-140.329l-2.0585,1.977l-3.9531,-4.117l2.0585,-1.977zM24.8153,-136.705l-2.0585,1.976l-3.953,-4.117l2.0584,-1.976zM21.0414,-133.082l-2.0584,1.977l-3.9531,-4.117l2.0585,-1.977zM17.2676,-129.458l-2.0585,1.977l-3.9531,-4.117l2.0585,-1.977zM13.4937,-125.834l-2.0585,1.976l-3.95308,-4.117l2.05848,-1.976zM9.79472,-122.283c0.0674,-0.07 0.10886,-0.163 0.10886,-0.26v1.001h-5.70755v-1.001c0,-1.382 0.53259,-2.71 1.49236,-3.704zM9.90358,-119.163v2.853h-5.70755v-2.853zM9.90358,-113.932v2.854h-5.70755v-2.854zM9.90358,-108.7v2.854h-5.70755v-2.854zM9.90358,-103.468v2.854h-5.70755v-2.854zM9.90358,-98.2358v2.8538h-5.70755v-2.8538zM9.90358,-93.0038v2.8537h-5.70755v-2.8537zM9.90358,-87.7719v2.8537h-5.70755v-2.8537zM9.90358,-82.54v2.8538h-5.70755v-2.8538zM9.90358,-77.3081v2.8538h-5.70755v-2.8538zM9.90358,-72.0761v2.8537h-5.70755v-2.8537zM9.90358,-66.8442v2.8538h-5.70755v-2.8538zM9.90358,-61.6123v2.8538h-5.70755v-2.8538zM9.90281,-56.5744c-0.00669,-0.0946 -0.04911,-0.1825 -0.11755,-0.2481l0.78144,0.7503l-3.95313,4.1169l-0.77923,-0.7482c-0.95305,-0.9142 -1.53162,-2.1507 -1.62484,-3.468zM12.2821,-54.4251l2.0584,1.9765l-3.9531,4.117l-2.05843,-1.9766zM16.0559,-50.8015l2.0585,1.9766l-3.9531,4.1169l-2.0584,-1.9765zM19.8298,-47.1778l2.0585,1.9765l-3.9531,4.117l-2.0585,-1.9766zM23.6037,-43.5542l2.0585,1.9766l-3.9531,4.1169l-2.0585,-1.9765zM27.3776,-39.9305l2.0585,1.9765l-3.9531,4.117l-2.0585,-1.9765zM31.1514,-36.3068l2.0585,1.9765l-3.9531,4.117l-2.0584,-1.9766zM34.9253,-32.6832l2.0585,1.9766l-3.9531,4.1169l-2.0585,-1.9765zM38.6992,-29.0595l2.0585,1.9765l-3.9531,4.117l-2.0585,-1.9766zM42.4731,-25.4359l2.0585,1.9766l-3.9531,4.1169l-2.0585,-1.9765zM46.247,-21.8122l2.0584,1.9765l-3.953,4.117l-2.0585,-1.9766zM50.0208,-18.1886l2.0585,1.9766l-3.9531,4.1169l-2.0584,-1.9765zM53.7947,-14.5649l1.2116,1.1634l-3.953,4.11696l-1.2117,-1.16336z"></path><path id="路径 5" style="fill:url(#linear_2); opacity:100"></path></g></g><g opacity="1"  transform="translate(129.693359375 533.9998779296875)  rotate(0)"><path id="矩形" fill-rule="evenodd" style="fill:#FFFFFF" opacity="0" d="M-112 -456L-112 -432L-88 -432L-88 -456L-112 -456Z"></path><g opacity="1"  transform="translate(132 536)  rotate(0)"><path id="路径" fill-rule="evenodd" fill="url(#linear_3)" opacity="1" d="M-222.32 -971.19L-229.45 -979.51L-222.32 -987.84C-221.84 -988.39 -221.91 -989.21 -222.46 -989.69C-223.01 -990.16 -223.84 -990.09 -224.31 -989.54L-232.17 -980.36C-232.59 -979.87 -232.59 -979.15 -232.17 -978.66L-224.31 -969.48C-224.05 -969.18 -223.68 -969.02 -223.31 -969.02C-223.01 -969.02 -222.71 -969.12 -222.46 -969.34C-221.91 -969.81 -221.84 -970.64 -222.32 -971.19Z"></path><path id="路径" fill-rule="evenodd" fill="url(#linear_4)" opacity="1" d="M-231.127 -987.84C-230.647 -988.39 -230.717 -989.21 -231.267 -989.69C-231.817 -990.16 -232.647 -990.09 -233.117 -989.54L-240.977 -980.36C-241.397 -979.87 -241.397 -979.15 -240.977 -978.66L-233.117 -969.48C-232.857 -969.18 -232.487 -969.02 -232.117 -969.02C-231.817 -969.02 -231.517 -969.12 -231.267 -969.34C-230.717 -969.81 -230.647 -970.64 -231.127 -971.19L-238.257 -979.51L-231.127 -987.84Z"></path></g></g></g><defs><linearGradient id="linear_0" x1="50%" y1="10.84220053835736%" x2="51%" y2="100%" gradientUnits="objectBoundingBox"><stop offset="0" stop-color="#3D7FFF" stop-opacity="1" /><stop offset="1" stop-color="#0077FF" stop-opacity="0" /></linearGradient><linearGradient id="linear_1" x1="50%" y1="0%" x2="51%" y2="100%" gradientUnits="objectBoundingBox"><stop offset="0" stop-color="#3D7FFF" stop-opacity="0" /><stop offset="0.4548509928012622" stop-color="#57D0FF" stop-opacity="1" /><stop offset="1" stop-color="#3D7FFF" stop-opacity="0" /></linearGradient><linearGradient id="linear_2" x1="0.7154344678758741%" y1="50.35771723393794%" x2="100%" y2="100%" gradientUnits="objectBoundingBox"><stop offset="0" stop-color="#66FFFF" stop-opacity="0" /><stop offset="0.5256629356971154" stop-color="#66FFFF" stop-opacity="1" /><stop offset="1" stop-color="#66FFFF" stop-opacity="0" /></linearGradient><linearGradient id="linear_3" x1="100%" y1="50%" x2="0%" y2="50%" gradientUnits="objectBoundingBox"><stop offset="0" stop-color="#3D7FFF" stop-opacity="0" /><stop offset="0.4981224954128501" stop-color="#3D7FFF" stop-opacity="1" /><stop offset="1" stop-color="#66FFFF" stop-opacity="1" /></linearGradient><linearGradient id="linear_4" x1="100%" y1="50%" x2="0%" y2="50%" gradientUnits="objectBoundingBox"><stop offset="0" stop-color="#3D7FFF" stop-opacity="0" /><stop offset="0.4981224954128501" stop-color="#3D7FFF" stop-opacity="1" /><stop offset="1" stop-color="#66FFFF" stop-opacity="1" /></linearGradient></defs></svg>