<svg xmlns="http://www.w3.org/2000/svg" xmlns:xlink="http://www.w3.org/1999/xlink" width="257.40283203125" height="272.295166015625" viewBox="0 0 257.40283203125 272.295166015625" fill="none"><g opacity="1"  transform="translate(7.9814453125 11.4376220703125)  rotate(0)"><g opacity="1"  transform="translate(0 -0.0001220703125)  rotate(0)"><g id="多边形" filter="url(#filter_3)"><path  id="多边形" style="fill:#3D7FFF; opacity:0.92;" d="M19.7031,62.36v124.71h-2.9931l1.4965,-2.592l107.9995,62.35l-1.496,2.592l-1.496,-2.592l108,-62.35l1.496,2.592h-2.993v-124.71h2.993l-1.497,2.592l-108,-62.36l1.497,-2.592l1.497,2.592l-108.0004,62.36l-1.4966,-2.592zM13.7169,60.632l110.9931,-64.08817l110.993,64.08817v128.166l-110.993,64.078l-110.9931,-64.078v-126.438z"></path></g><path  id="多边形" style="fill:#3D7FFF; opacity:1;" d="M17.7077,62.36v124.71h-0.9977l0.4988,-0.864l108.0002,62.35l-0.499,0.864l-0.499,-0.864l108,-62.35l0.499,0.864h-0.998v-124.71h0.998l-0.499,0.864l-108,-62.36l0.499,-0.864l0.499,0.864l-108.0001,62.36l-0.4989,-0.864zM15.7123,61.784l108.9977,-62.93606l108.998,62.93606v125.862l-108.998,62.926l-108.9977,-62.926v-125.286z"></path><g id="形状" filter="url(#filter_6)"><path id="形状" fill-rule="evenodd" style="fill:#3D7FFF" opacity="1" d="M214.743,46.2493c0.13333,0.09513 0.26133,0.19657 0.384,0.3043c0.12267,0.10773 0.24,0.2212 0.352,0.3404c0.11133,0.11927 0.21667,0.2437 0.316,0.3733c0.09933,0.1296 0.19233,0.26377 0.279,0.4025c0.086,0.13873 0.16533,0.28137 0.238,0.4279c0.072,0.14653 0.13667,0.29627 0.194,0.4492c0.058,0.15287 0.108,0.3082 0.15,0.466c0.042,0.15787 0.07633,0.31737 0.103,0.4785c0.02667,0.1612 0.04533,0.32333 0.056,0.4864c0.01067,0.163 0.01333,0.32613 0.008,0.4894c-0.00533,0.16333 -0.01867,0.32597 -0.04,0.4879c-0.02133,0.162 -0.05033,0.32253 -0.087,0.4816c-0.03733,0.15913 -0.08233,0.31607 -0.135,0.4708c-0.05267,0.15467 -0.11267,0.3064 -0.18,0.4552c-0.06733,0.1488 -0.14167,0.29397 -0.223,0.4355c-0.082,0.14147 -0.17067,0.2786 -0.266,0.4114c-0.09467,0.1328 -0.196,0.2606 -0.304,0.3834c-0.10733,0.12287 -0.22067,0.24013 -0.34,0.3518c-0.11933,0.11167 -0.244,0.21723 -0.374,0.3167c-0.12933,0.09947 -0.26333,0.19233 -0.402,0.2786c-0.13867,0.08627 -0.28133,0.16553 -0.428,0.2378c-0.14667,0.07227 -0.29633,0.13717 -0.449,0.1947c-0.15333,0.05753 -0.30867,0.10743 -0.466,0.1497c-0.158,0.04227 -0.31767,0.07673 -0.479,0.1034c-0.16133,0.0266 -0.32333,0.04523 -0.486,0.0559c-0.16333,0.01067 -0.32667,0.01333 -0.49,0.008c-0.16333,-0.00533 -0.32567,-0.01867 -0.487,-0.04c-0.162,-0.02133 -0.32267,-0.05057 -0.482,-0.0877c-0.15933,-0.03707 -0.31633,-0.08187 -0.471,-0.1344c-0.15467,-0.05253 -0.30633,-0.1125 -0.455,-0.1799c-0.14867,-0.0674 -0.294,-0.14197 -0.436,-0.2237l-62.535,-36.1062c-0.142,-0.08167 -0.27933,-0.1701 -0.412,-0.2653c-0.13267,-0.09513 -0.26033,-0.19657 -0.383,-0.3043c-0.12333,-0.10773 -0.24067,-0.2212 -0.352,-0.3404c-0.112,-0.11927 -0.21767,-0.2437 -0.317,-0.3733c-0.09933,-0.1296 -0.192,-0.26377 -0.278,-0.4025c-0.08667,-0.13873 -0.166,-0.28137 -0.238,-0.4279c-0.07267,-0.14653 -0.13767,-0.29627 -0.195,-0.4492c-0.05733,-0.15287 -0.10733,-0.3082 -0.15,-0.466c-0.042,-0.1578 -0.07633,-0.3173 -0.103,-0.4785c-0.02667,-0.1612 -0.04533,-0.32333 -0.056,-0.4864c-0.01067,-0.163 -0.01333,-0.32613 -0.008,-0.4894c0.00533,-0.16333 0.01867,-0.32597 0.04,-0.4879c0.02133,-0.162 0.05067,-0.32253 0.088,-0.4816c0.03667,-0.15913 0.08133,-0.31607 0.134,-0.4708c0.05267,-0.15467 0.11267,-0.3064 0.18,-0.4552c0.06733,-0.1488 0.142,-0.29397 0.224,-0.4355c0.08133,-0.14147 0.16967,-0.2786 0.265,-0.4114c0.09533,-0.1328 0.19667,-0.2606 0.304,-0.3834c0.108,-0.12287 0.22167,-0.24013 0.341,-0.3518c0.11933,-0.11167 0.24367,-0.21723 0.373,-0.3167c0.13,-0.09947 0.26433,-0.19232 0.403,-0.27857c0.13867,-0.08627 0.281,-0.16553 0.427,-0.23779c0.14667,-0.07225 0.29667,-0.13715 0.45,-0.1947c0.15267,-0.05755 0.308,-0.10746 0.466,-0.14975c0.15733,-0.04228 0.31667,-0.07673 0.478,-0.10334c0.16133,-0.02661 0.32367,-0.04525 0.487,-0.05594c0.16267,-0.01068 0.32567,-0.01335 0.489,-0.008c0.16333,0.00535 0.326,0.01868 0.488,0.04001c0.162,0.02133 0.32267,0.05054 0.482,0.08764c0.15867,0.0371 0.31533,0.08191 0.47,0.13442c0.15467,0.05252 0.30667,0.11249 0.456,0.17992c0.14867,0.06743 0.29367,0.14198 0.435,0.22367l62.536,36.10623c0.14133,0.08167 0.27833,0.1701 0.411,0.2653zM35.3088,203.557c-0.06867,-0.044 -0.13617,-0.09 -0.2025,-0.138c-0.06633,-0.04733 -0.1315,-0.09633 -0.1955,-0.147c-0.06393,-0.05067 -0.12657,-0.103 -0.1879,-0.157c-0.0614,-0.054 -0.12143,-0.10933 -0.1801,-0.166c-0.05867,-0.05667 -0.1159,-0.11467 -0.1717,-0.174c-0.0558,-0.06 -0.1101,-0.121 -0.1629,-0.183c-0.05287,-0.062 -0.10413,-0.12567 -0.1538,-0.191c-0.04967,-0.06467 -0.09773,-0.13033 -0.1442,-0.197c-0.04647,-0.06733 -0.09127,-0.13567 -0.1344,-0.205c-0.04313,-0.06933 -0.0845,-0.13967 -0.1241,-0.211c-0.03967,-0.07133 -0.07757,-0.14367 -0.1137,-0.217c-0.03607,-0.07333 -0.07033,-0.14733 -0.1028,-0.222c-0.03247,-0.07533 -0.0631,-0.151 -0.0919,-0.227c-0.02873,-0.07667 -0.0556,-0.15367 -0.0806,-0.231c-0.02493,-0.078 -0.04797,-0.15633 -0.0691,-0.235c-0.02113,-0.07933 -0.04033,-0.15867 -0.0576,-0.238c-0.0172,-0.08 -0.03247,-0.16033 -0.0458,-0.241c-0.01327,-0.08067 -0.02457,-0.16133 -0.0339,-0.242c-0.00933,-0.08133 -0.01667,-0.16267 -0.022,-0.244c-0.00533,-0.08133 -0.00867,-0.163 -0.01,-0.245c-0.00133,-0.08133 -0.00067,-0.163 0.002,-0.245c0.00267,-0.08133 0.00733,-0.16267 0.014,-0.244c0.00667,-0.08133 0.01533,-0.16233 0.026,-0.243c0.01067,-0.08133 0.0233,-0.162 0.0379,-0.242c0.0146,-0.08067 0.03117,-0.16067 0.0497,-0.24c0.0186,-0.07933 0.0391,-0.15833 0.0615,-0.237c0.0224,-0.07867 0.04673,-0.15667 0.073,-0.234c0.0262,-0.07733 0.0543,-0.154 0.0843,-0.23c0.03007,-0.076 0.06193,-0.151 0.0956,-0.225c0.03367,-0.07467 0.06917,-0.14833 0.1065,-0.221c0.03727,-0.072 0.07633,-0.14333 0.1172,-0.214c0.08167,-0.142 0.17007,-0.27933 0.2652,-0.412c0.0952,-0.13267 0.19667,-0.26033 0.3044,-0.383c0.10767,-0.12333 0.22113,-0.24067 0.3404,-0.352c0.11927,-0.112 0.2437,-0.21767 0.3733,-0.317c0.1296,-0.09933 0.26377,-0.192 0.4025,-0.278c0.13873,-0.08667 0.28137,-0.166 0.4279,-0.238c0.14653,-0.07267 0.29627,-0.13767 0.4492,-0.195c0.15287,-0.05733 0.3082,-0.10733 0.466,-0.15c0.1578,-0.042 0.3173,-0.07633 0.4785,-0.103c0.1612,-0.02667 0.32333,-0.04533 0.4864,-0.056c0.163,-0.01067 0.32613,-0.01333 0.4894,-0.008c0.16333,0.00533 0.32597,0.01867 0.4879,0.04c0.162,0.02133 0.32253,0.05067 0.4816,0.088c0.15913,0.03667 0.31603,0.08133 0.4707,0.134c0.15473,0.05267 0.3065,0.11267 0.4553,0.18c0.1488,0.06733 0.29397,0.142 0.4355,0.224l65.9488,38.076c0.07067,0.04067 0.14033,0.08333 0.209,0.128c0.06867,0.044 0.136,0.09 0.202,0.138c0.06667,0.04733 0.132,0.09633 0.196,0.147c0.06333,0.05067 0.12567,0.103 0.187,0.157c0.062,0.054 0.12233,0.10933 0.181,0.166c0.05867,0.05667 0.11567,0.11467 0.171,0.174c0.056,0.06 0.11033,0.121 0.163,0.183c0.05267,0.062 0.104,0.12567 0.154,0.191c0.05,0.06467 0.098,0.13033 0.144,0.197c0.04667,0.06733 0.09167,0.13567 0.135,0.205c0.04267,0.06933 0.084,0.13967 0.124,0.211c0.03933,0.07133 0.077,0.14367 0.113,0.217c0.03667,0.07333 0.071,0.14733 0.103,0.222c0.03267,0.07533 0.06333,0.151 0.092,0.227c0.02867,0.07667 0.05567,0.15367 0.081,0.231c0.02467,0.078 0.04767,0.15633 0.069,0.235c0.02067,0.07867 0.03967,0.158 0.057,0.238c0.01733,0.08 0.03267,0.16033 0.046,0.241c0.01333,0.08067 0.02467,0.16133 0.034,0.242c0.00933,0.08133 0.01667,0.16267 0.022,0.244c0.00533,0.08133 0.00867,0.163 0.01,0.245c0.00133,0.08133 0.00067,0.163 -0.002,0.245c-0.00267,0.08133 -0.00733,0.16267 -0.014,0.244c-0.00667,0.08133 -0.01533,0.16233 -0.026,0.243c-0.01067,0.08133 -0.02333,0.162 -0.038,0.242c-0.01467,0.08067 -0.03133,0.16067 -0.05,0.24c-0.018,0.07933 -0.03833,0.15833 -0.061,0.237c-0.02267,0.07867 -0.047,0.15667 -0.073,0.234c-0.026,0.07733 -0.054,0.154 -0.084,0.23c-0.03,0.07533 -0.062,0.15033 -0.096,0.225c-0.03333,0.07467 -0.06867,0.148 -0.106,0.22c-0.03733,0.07267 -0.07667,0.14433 -0.118,0.215c-0.08133,0.142 -0.16967,0.27933 -0.265,0.412c-0.09533,0.13267 -0.19667,0.26033 -0.304,0.383c-0.108,0.12333 -0.22167,0.24067 -0.341,0.352c-0.11867,0.112 -0.243,0.21767 -0.373,0.317c-0.12933,0.09933 -0.26333,0.192 -0.402,0.278c-0.13933,0.08667 -0.282,0.166 -0.428,0.238c-0.14667,0.07267 -0.29633,0.13767 -0.449,0.195c-0.15333,0.05733 -0.309,0.10733 -0.467,0.15c-0.15733,0.042 -0.31667,0.07633 -0.478,0.103c-0.16133,0.02667 -0.32333,0.04533 -0.486,0.056c-0.16333,0.01067 -0.32667,0.01333 -0.49,0.008c-0.16333,-0.00533 -0.326,-0.01867 -0.488,-0.04c-0.162,-0.02133 -0.32233,-0.05067 -0.481,-0.088c-0.15933,-0.03667 -0.31633,-0.08133 -0.471,-0.134c-0.15467,-0.05267 -0.30633,-0.11267 -0.455,-0.18c-0.14933,-0.06733 -0.29467,-0.142 -0.436,-0.224l-65.9483,-38.076c-0.07067,-0.04133 -0.1403,-0.084 -0.2089,-0.128z"></path></g><path id="形状" fill-rule="evenodd" style="fill:#32C5FF" opacity="1" d="M214.743,46.2493c0.13333,0.09513 0.26133,0.19657 0.384,0.3043c0.12267,0.10773 0.24,0.2212 0.352,0.3404c0.11133,0.11927 0.21667,0.2437 0.316,0.3733c0.09933,0.1296 0.19233,0.26377 0.279,0.4025c0.086,0.13873 0.16533,0.28137 0.238,0.4279c0.072,0.14653 0.13667,0.29627 0.194,0.4492c0.058,0.15287 0.108,0.3082 0.15,0.466c0.042,0.15787 0.07633,0.31737 0.103,0.4785c0.02667,0.1612 0.04533,0.32333 0.056,0.4864c0.01067,0.163 0.01333,0.32613 0.008,0.4894c-0.00533,0.16333 -0.01867,0.32597 -0.04,0.4879c-0.02133,0.162 -0.05033,0.32253 -0.087,0.4816c-0.03733,0.15913 -0.08233,0.31607 -0.135,0.4708c-0.05267,0.15467 -0.11267,0.3064 -0.18,0.4552c-0.06733,0.1488 -0.14167,0.29397 -0.223,0.4355c-0.082,0.14147 -0.17067,0.2786 -0.266,0.4114c-0.09467,0.1328 -0.196,0.2606 -0.304,0.3834c-0.10733,0.12287 -0.22067,0.24013 -0.34,0.3518c-0.11933,0.11167 -0.244,0.21723 -0.374,0.3167c-0.12933,0.09947 -0.26333,0.19233 -0.402,0.2786c-0.13867,0.08627 -0.28133,0.16553 -0.428,0.2378c-0.14667,0.07227 -0.29633,0.13717 -0.449,0.1947c-0.15333,0.05753 -0.30867,0.10743 -0.466,0.1497c-0.158,0.04227 -0.31767,0.07673 -0.479,0.1034c-0.16133,0.0266 -0.32333,0.04523 -0.486,0.0559c-0.16333,0.01067 -0.32667,0.01333 -0.49,0.008c-0.16333,-0.00533 -0.32567,-0.01867 -0.487,-0.04c-0.162,-0.02133 -0.32267,-0.05057 -0.482,-0.0877c-0.15933,-0.03707 -0.31633,-0.08187 -0.471,-0.1344c-0.15467,-0.05253 -0.30633,-0.1125 -0.455,-0.1799c-0.14867,-0.0674 -0.294,-0.14197 -0.436,-0.2237l-62.535,-36.1062c-0.142,-0.08167 -0.27933,-0.1701 -0.412,-0.2653c-0.13267,-0.09513 -0.26033,-0.19657 -0.383,-0.3043c-0.12333,-0.10773 -0.24067,-0.2212 -0.352,-0.3404c-0.112,-0.11927 -0.21767,-0.2437 -0.317,-0.3733c-0.09933,-0.1296 -0.192,-0.26377 -0.278,-0.4025c-0.08667,-0.13873 -0.166,-0.28137 -0.238,-0.4279c-0.07267,-0.14653 -0.13767,-0.29627 -0.195,-0.4492c-0.05733,-0.15287 -0.10733,-0.3082 -0.15,-0.466c-0.042,-0.1578 -0.07633,-0.3173 -0.103,-0.4785c-0.02667,-0.1612 -0.04533,-0.32333 -0.056,-0.4864c-0.01067,-0.163 -0.01333,-0.32613 -0.008,-0.4894c0.00533,-0.16333 0.01867,-0.32597 0.04,-0.4879c0.02133,-0.162 0.05067,-0.32253 0.088,-0.4816c0.03667,-0.15913 0.08133,-0.31607 0.134,-0.4708c0.05267,-0.15467 0.11267,-0.3064 0.18,-0.4552c0.06733,-0.1488 0.142,-0.29397 0.224,-0.4355c0.08133,-0.14147 0.16967,-0.2786 0.265,-0.4114c0.09533,-0.1328 0.19667,-0.2606 0.304,-0.3834c0.108,-0.12287 0.22167,-0.24013 0.341,-0.3518c0.11933,-0.11167 0.24367,-0.21723 0.373,-0.3167c0.13,-0.09947 0.26433,-0.19232 0.403,-0.27857c0.13867,-0.08627 0.281,-0.16553 0.427,-0.23779c0.14667,-0.07225 0.29667,-0.13715 0.45,-0.1947c0.15267,-0.05755 0.308,-0.10746 0.466,-0.14975c0.15733,-0.04228 0.31667,-0.07673 0.478,-0.10334c0.16133,-0.02661 0.32367,-0.04525 0.487,-0.05594c0.16267,-0.01068 0.32567,-0.01335 0.489,-0.008c0.16333,0.00535 0.326,0.01868 0.488,0.04001c0.162,0.02133 0.32267,0.05054 0.482,0.08764c0.15867,0.0371 0.31533,0.08191 0.47,0.13442c0.15467,0.05252 0.30667,0.11249 0.456,0.17992c0.14867,0.06743 0.29367,0.14198 0.435,0.22367l62.536,36.10623c0.14133,0.08167 0.27833,0.1701 0.411,0.2653zM35.3088,203.557c-0.06867,-0.044 -0.13617,-0.09 -0.2025,-0.138c-0.06633,-0.04733 -0.1315,-0.09633 -0.1955,-0.147c-0.06393,-0.05067 -0.12657,-0.103 -0.1879,-0.157c-0.0614,-0.054 -0.12143,-0.10933 -0.1801,-0.166c-0.05867,-0.05667 -0.1159,-0.11467 -0.1717,-0.174c-0.0558,-0.06 -0.1101,-0.121 -0.1629,-0.183c-0.05287,-0.062 -0.10413,-0.12567 -0.1538,-0.191c-0.04967,-0.06467 -0.09773,-0.13033 -0.1442,-0.197c-0.04647,-0.06733 -0.09127,-0.13567 -0.1344,-0.205c-0.04313,-0.06933 -0.0845,-0.13967 -0.1241,-0.211c-0.03967,-0.07133 -0.07757,-0.14367 -0.1137,-0.217c-0.03607,-0.07333 -0.07033,-0.14733 -0.1028,-0.222c-0.03247,-0.07533 -0.0631,-0.151 -0.0919,-0.227c-0.02873,-0.07667 -0.0556,-0.15367 -0.0806,-0.231c-0.02493,-0.078 -0.04797,-0.15633 -0.0691,-0.235c-0.02113,-0.07933 -0.04033,-0.15867 -0.0576,-0.238c-0.0172,-0.08 -0.03247,-0.16033 -0.0458,-0.241c-0.01327,-0.08067 -0.02457,-0.16133 -0.0339,-0.242c-0.00933,-0.08133 -0.01667,-0.16267 -0.022,-0.244c-0.00533,-0.08133 -0.00867,-0.163 -0.01,-0.245c-0.00133,-0.08133 -0.00067,-0.163 0.002,-0.245c0.00267,-0.08133 0.00733,-0.16267 0.014,-0.244c0.00667,-0.08133 0.01533,-0.16233 0.026,-0.243c0.01067,-0.08133 0.0233,-0.162 0.0379,-0.242c0.0146,-0.08067 0.03117,-0.16067 0.0497,-0.24c0.0186,-0.07933 0.0391,-0.15833 0.0615,-0.237c0.0224,-0.07867 0.04673,-0.15667 0.073,-0.234c0.0262,-0.07733 0.0543,-0.154 0.0843,-0.23c0.03007,-0.076 0.06193,-0.151 0.0956,-0.225c0.03367,-0.07467 0.06917,-0.14833 0.1065,-0.221c0.03727,-0.072 0.07633,-0.14333 0.1172,-0.214c0.08167,-0.142 0.17007,-0.27933 0.2652,-0.412c0.0952,-0.13267 0.19667,-0.26033 0.3044,-0.383c0.10767,-0.12333 0.22113,-0.24067 0.3404,-0.352c0.11927,-0.112 0.2437,-0.21767 0.3733,-0.317c0.1296,-0.09933 0.26377,-0.192 0.4025,-0.278c0.13873,-0.08667 0.28137,-0.166 0.4279,-0.238c0.14653,-0.07267 0.29627,-0.13767 0.4492,-0.195c0.15287,-0.05733 0.3082,-0.10733 0.466,-0.15c0.1578,-0.042 0.3173,-0.07633 0.4785,-0.103c0.1612,-0.02667 0.32333,-0.04533 0.4864,-0.056c0.163,-0.01067 0.32613,-0.01333 0.4894,-0.008c0.16333,0.00533 0.32597,0.01867 0.4879,0.04c0.162,0.02133 0.32253,0.05067 0.4816,0.088c0.15913,0.03667 0.31603,0.08133 0.4707,0.134c0.15473,0.05267 0.3065,0.11267 0.4553,0.18c0.1488,0.06733 0.29397,0.142 0.4355,0.224l65.9488,38.076c0.07067,0.04067 0.14033,0.08333 0.209,0.128c0.06867,0.044 0.136,0.09 0.202,0.138c0.06667,0.04733 0.132,0.09633 0.196,0.147c0.06333,0.05067 0.12567,0.103 0.187,0.157c0.062,0.054 0.12233,0.10933 0.181,0.166c0.05867,0.05667 0.11567,0.11467 0.171,0.174c0.056,0.06 0.11033,0.121 0.163,0.183c0.05267,0.062 0.104,0.12567 0.154,0.191c0.05,0.06467 0.098,0.13033 0.144,0.197c0.04667,0.06733 0.09167,0.13567 0.135,0.205c0.04267,0.06933 0.084,0.13967 0.124,0.211c0.03933,0.07133 0.077,0.14367 0.113,0.217c0.03667,0.07333 0.071,0.14733 0.103,0.222c0.03267,0.07533 0.06333,0.151 0.092,0.227c0.02867,0.07667 0.05567,0.15367 0.081,0.231c0.02467,0.078 0.04767,0.15633 0.069,0.235c0.02067,0.07867 0.03967,0.158 0.057,0.238c0.01733,0.08 0.03267,0.16033 0.046,0.241c0.01333,0.08067 0.02467,0.16133 0.034,0.242c0.00933,0.08133 0.01667,0.16267 0.022,0.244c0.00533,0.08133 0.00867,0.163 0.01,0.245c0.00133,0.08133 0.00067,0.163 -0.002,0.245c-0.00267,0.08133 -0.00733,0.16267 -0.014,0.244c-0.00667,0.08133 -0.01533,0.16233 -0.026,0.243c-0.01067,0.08133 -0.02333,0.162 -0.038,0.242c-0.01467,0.08067 -0.03133,0.16067 -0.05,0.24c-0.018,0.07933 -0.03833,0.15833 -0.061,0.237c-0.02267,0.07867 -0.047,0.15667 -0.073,0.234c-0.026,0.07733 -0.054,0.154 -0.084,0.23c-0.03,0.07533 -0.062,0.15033 -0.096,0.225c-0.03333,0.07467 -0.06867,0.148 -0.106,0.22c-0.03733,0.07267 -0.07667,0.14433 -0.118,0.215c-0.08133,0.142 -0.16967,0.27933 -0.265,0.412c-0.09533,0.13267 -0.19667,0.26033 -0.304,0.383c-0.108,0.12333 -0.22167,0.24067 -0.341,0.352c-0.11867,0.112 -0.243,0.21767 -0.373,0.317c-0.12933,0.09933 -0.26333,0.192 -0.402,0.278c-0.13933,0.08667 -0.282,0.166 -0.428,0.238c-0.14667,0.07267 -0.29633,0.13767 -0.449,0.195c-0.15333,0.05733 -0.309,0.10733 -0.467,0.15c-0.15733,0.042 -0.31667,0.07633 -0.478,0.103c-0.16133,0.02667 -0.32333,0.04533 -0.486,0.056c-0.16333,0.01067 -0.32667,0.01333 -0.49,0.008c-0.16333,-0.00533 -0.326,-0.01867 -0.488,-0.04c-0.162,-0.02133 -0.32233,-0.05067 -0.481,-0.088c-0.15933,-0.03667 -0.31633,-0.08133 -0.471,-0.134c-0.15467,-0.05267 -0.30633,-0.11267 -0.455,-0.18c-0.14933,-0.06733 -0.29467,-0.142 -0.436,-0.224l-65.9483,-38.076c-0.07067,-0.04133 -0.1403,-0.084 -0.2089,-0.128z"></path><path id="多边形" fill-rule="evenodd" fill="url(#linear_0)" opacity="1" d="M30.6729 70.833L30.6729 180.583L125.713 235.453L220.743 180.583L220.743 70.833L125.713 15.963L30.6729 70.833Z"></path><path  id="多边形" style="fill:#3D7FFF; opacity:1;" d="M34.6636,70.833v109.75h-3.9907l1.9953,-3.456l95.0398,54.87l-1.995,3.456l-1.996,-3.456l95.03,-54.87l1.996,3.456h-3.991v-109.75h3.991l-1.996,3.456l-95.03,-54.87l1.996,-3.456l1.995,3.4561l-95.0398,54.87l-1.9953,-3.4561zM26.6821,68.5289l99.0309,-57.174l99.021,57.1741v114.358l-99.021,57.174l-99.0309,-57.174v-112.054z"></path><path id="椭圆形" fill-rule="evenodd" style="fill:#3DD8FF" opacity="1" d="M39.9099 72.8273C39.9099 68.9773 36.7799 65.8473 32.9199 65.8473C29.0699 65.8473 25.9399 68.9773 25.9399 72.8273C25.9399 76.6873 29.0699 79.8173 32.9199 79.8173C36.7799 79.8173 39.9099 76.6873 39.9099 72.8273Z"></path><path id="椭圆形" fill-rule="evenodd" style="fill:#3DD8FF" opacity="1" d="M39.9099 178.582C39.9099 174.732 36.7799 171.602 32.9199 171.602C29.0699 171.602 25.9399 174.732 25.9399 178.582C25.9399 182.442 29.0699 185.572 32.9199 185.572C36.7799 185.572 39.9099 182.442 39.9099 178.582Z"></path><path id="椭圆形" fill-rule="evenodd" style="fill:#3DD8FF" opacity="1" d="M223.484 72.8273C223.484 68.9773 220.354 65.8473 216.494 65.8473C212.644 65.8473 209.514 68.9773 209.514 72.8273C209.514 76.6873 212.644 79.8173 216.494 79.8173C220.354 79.8173 223.484 76.6873 223.484 72.8273Z"></path><path id="椭圆形" fill-rule="evenodd" style="fill:#3DD8FF" opacity="1" d="M223.484 178.582C223.484 174.732 220.354 171.602 216.494 171.602C212.644 171.602 209.514 174.732 209.514 178.582C209.514 182.442 212.644 185.572 216.494 185.572C220.354 185.572 223.484 182.442 223.484 178.582Z"></path></g></g><defs><filter id="filter_3" x="-3.99074147976694" y="-3.99074147976694" width="257.4028254449677" height="257.4028254449677" filterUnits="userSpaceOnUse" color-interpolation-filters="sRGB"><feFlood flood-opacity="0" result="BackgroundImageFix"/>
          <feBlend mode="normal" in="SourceGraphic" in2="BackgroundImageFix" result="shape"/>
          <feGaussianBlur stdDeviation="1.99537073988347" result="effect1_foregroundBlur" /></filter><filter id="filter_6" x="29.03269602023306" y="5.21860910617056" width="191.7838661078191" height="241.2016214476407" filterUnits="userSpaceOnUse" color-interpolation-filters="sRGB"><feFlood flood-opacity="0" result="BackgroundImageFix"/>
          <feBlend mode="normal" in="SourceGraphic" in2="BackgroundImageFix" result="shape"/>
          <feGaussianBlur stdDeviation="1.99537073988347" result="effect1_foregroundBlur" /></filter><linearGradient id="linear_0" x1="50%" y1="0%" x2="51%" y2="100%" gradientUnits="objectBoundingBox"><stop offset="0" stop-color="#3D7FFF" stop-opacity="1" /><stop offset="0.5038586421346323" stop-color="#3D7FFF" stop-opacity="0" /><stop offset="1" stop-color="#3D7FFF" stop-opacity="1" /></linearGradient></defs></svg>