<svg xmlns="http://www.w3.org/2000/svg" xmlns:xlink="http://www.w3.org/1999/xlink" width="3533.80859375" height="2203.884033203125" viewBox="0 0 3533.80859375 2203.884033203125" fill="none"><g opacity="1"  transform="translate(1765.80859375 395.884033203125)  rotate(0)"><g opacity="1"  transform="translate(161 0)  rotate(0)"><g opacity="1"  transform="translate(-456 1808)  rotate(0)"><path id="路径" style="fill:url(#linear_0); opacity:100" d="M-1469.22,-2203.88l55.45,49.88c0.85,0.76 1.35,1.85 1.35,3v75.7c0,1.15 -0.5,2.24 -1.35,3l-55.45,49.88l-1.59,-1.76l55.45,-49.88c0.35,-0.32 0.56,-0.77 0.56,-1.24v-75.7c0,-0.47 -0.21,-0.92 -0.56,-1.24l-55.45,-49.88z"></path><path id="路径" style="fill:url(#linear_1); opacity:100" d="M-1464.36,-2193.12l2.06,1.98l-3.95,4.11l-2.06,-1.97zM-1460.59,-2189.49l2.06,1.97l-3.95,4.12l-2.06,-1.98zM-1456.81,-2185.87l2.06,1.98l-3.96,4.11l-2.06,-1.97zM-1453.04,-2182.25l2.06,1.98l-3.95,4.12l-2.06,-1.98zM-1449.26,-2178.62l2.05,1.97l-3.95,4.12l-2.06,-1.98zM-1445.49,-2175l2.06,1.98l-3.96,4.11l-2.05,-1.97zM-1441.72,-2171.38l2.06,1.98l-3.95,4.12l-2.06,-1.98zM-1437.94,-2167.75l2.06,1.97l-3.96,4.12l-2.06,-1.98zM-1434.17,-2164.13l2.06,1.98l-3.95,4.11l-2.06,-1.97zM-1430.4,-2160.51l2.06,1.98l-3.95,4.12l-2.06,-1.98zM-1426.62,-2156.88l2.06,1.97l-3.96,4.12l-2.05,-1.97zM-1422.85,-2153.26l2.06,1.98l-3.95,4.12l-2.06,-1.98zM-1418.99,-2149.55c0.95,0.99 1.49,2.32 1.49,3.7v1h-5.71v-1c0,0.1 0.04,0.19 0.11,0.26zM-1417.5,-2142.47v2.85h-5.71v-2.85zM-1417.5,-2137.24v2.86h-5.71v-2.86zM-1417.5,-2132.01v2.86h-5.71v-2.86zM-1417.5,-2126.77v2.85h-5.71v-2.85zM-1417.5,-2121.54v2.85h-5.71v-2.85zM-1417.5,-2116.31v2.85h-5.71v-2.85zM-1417.5,-2111.08v2.85h-5.71v-2.85zM-1417.5,-2105.85v2.86h-5.71v-2.86zM-1417.5,-2100.62v2.86h-5.71v-2.86zM-1417.5,-2095.38v2.85h-5.71v-2.85zM-1417.5,-2090.15v2.85h-5.71v-2.85zM-1417.5,-2084.92v2.85h-5.71v-2.85zM-1417.52,-2079.48c-0.09,1.32 -0.67,2.56 -1.62,3.47l-0.78,0.75l-3.95,-4.12l0.78,-0.75c-0.07,0.07 -0.11,0.15 -0.12,0.25zM-1421.64,-2073.62l-2.05,1.98l-3.96,-4.12l2.06,-1.97zM-1425.41,-2069.99l-2.06,1.97l-3.95,-4.11l2.06,-1.98zM-1429.18,-2066.37l-2.06,1.98l-3.95,-4.12l2.05,-1.97zM-1432.96,-2062.74l-2.06,1.97l-3.95,-4.11l2.06,-1.98zM-1436.73,-2059.12l-2.06,1.98l-3.95,-4.12l2.06,-1.98zM-1440.51,-2055.5l-2.05,1.98l-3.96,-4.12l2.06,-1.97zM-1444.28,-2051.87l-2.06,1.97l-3.95,-4.11l2.06,-1.98zM-1448.05,-2048.25l-2.06,1.98l-3.95,-4.12l2.05,-1.98zM-1451.83,-2044.63l-2.06,1.98l-3.95,-4.12l2.06,-1.97zM-1455.6,-2041l-2.06,1.97l-3.95,-4.11l2.06,-1.98zM-1459.37,-2037.38l-2.06,1.98l-3.96,-4.12l2.06,-1.98zM-1463.15,-2033.76l-1.21,1.17l-3.95,-4.12l1.21,-1.16z"></path><path id="路径 5" style="fill:url(#linear_2); opacity:100"></path></g></g><g opacity="1"  transform="translate(0 139)  rotate(0)"><path id="矩形" fill-rule="evenodd" style="fill:#FFFFFF" opacity="0" d="M-1750 -432L-1726 -432L-1726 -456L-1750 -456L-1750 -432Z"></path><g opacity="1"  transform="translate(1768 536)  rotate(0)"><path id="路径" fill-rule="evenodd" fill="url(#linear_3)" opacity="1" d="M-3515.68 -971.19C-3516.16 -970.64 -3516.09 -969.81 -3515.54 -969.34C-3515.29 -969.12 -3514.99 -969.02 -3514.69 -969.02C-3514.32 -969.02 -3513.95 -969.18 -3513.69 -969.48L-3505.83 -978.66C-3505.41 -979.15 -3505.41 -979.87 -3505.83 -980.36L-3513.69 -989.54C-3514.16 -990.09 -3514.99 -990.16 -3515.54 -989.69C-3516.09 -989.21 -3516.16 -988.39 -3515.68 -987.84L-3508.55 -979.51L-3515.68 -971.19Z"></path><path id="路径" fill-rule="evenodd" fill="url(#linear_4)" opacity="1" d="M-3504.88 -989.54C-3505.35 -990.09 -3506.18 -990.16 -3506.73 -989.69C-3507.28 -989.21 -3507.35 -988.39 -3506.87 -987.84L-3499.74 -979.51L-3506.87 -971.19C-3507.35 -970.64 -3507.28 -969.81 -3506.73 -969.34C-3506.48 -969.12 -3506.18 -969.02 -3505.88 -969.02C-3505.51 -969.02 -3505.14 -969.18 -3504.88 -969.48L-3497.02 -978.66C-3496.6 -979.15 -3496.6 -979.87 -3497.02 -980.36L-3504.88 -989.54Z"></path></g></g></g><defs><linearGradient id="linear_0" x1="50%" y1="10.84220053835736%" x2="51%" y2="100%" gradientUnits="objectBoundingBox"><stop offset="0" stop-color="#3D7FFF" stop-opacity="1" /><stop offset="1" stop-color="#0077FF" stop-opacity="0" /></linearGradient><linearGradient id="linear_1" x1="50%" y1="0%" x2="51%" y2="100%" gradientUnits="objectBoundingBox"><stop offset="0" stop-color="#3D7FFF" stop-opacity="0" /><stop offset="0.4548509928012622" stop-color="#57D0FF" stop-opacity="1" /><stop offset="1" stop-color="#3D7FFF" stop-opacity="0" /></linearGradient><linearGradient id="linear_2" x1="0.7154344678758741%" y1="50.35771723393794%" x2="100%" y2="100%" gradientUnits="objectBoundingBox"><stop offset="0" stop-color="#66FFFF" stop-opacity="0" /><stop offset="0.5256629356971154" stop-color="#66FFFF" stop-opacity="1" /><stop offset="1" stop-color="#66FFFF" stop-opacity="0" /></linearGradient><linearGradient id="linear_3" x1="0%" y1="50%" x2="100%" y2="50%" gradientUnits="objectBoundingBox"><stop offset="0" stop-color="#3D7FFF" stop-opacity="0" /><stop offset="0.4981224954128501" stop-color="#3D7FFF" stop-opacity="1" /><stop offset="1" stop-color="#66FFFF" stop-opacity="1" /></linearGradient><linearGradient id="linear_4" x1="0%" y1="50%" x2="100%" y2="50%" gradientUnits="objectBoundingBox"><stop offset="0" stop-color="#3D7FFF" stop-opacity="0" /><stop offset="0.4981224954128501" stop-color="#3D7FFF" stop-opacity="1" /><stop offset="1" stop-color="#66FFFF" stop-opacity="1" /></linearGradient></defs></svg>