<svg xmlns="http://www.w3.org/2000/svg" xmlns:xlink="http://www.w3.org/1999/xlink" width="293.84972369653406" height="57.0001220703125" viewBox="0 0 293.84972369653406 57.0001220703125" fill="none"><g opacity="1"  transform="translate(0 0)  rotate(0)"><path id="Miter icon" fill-rule="evenodd" fill="url(#linear_0)" opacity="1" d="M20.5502,10.91c0.36,-0.07 1.08,-0.11 1.08,-0.11c2.29,0.02 4.45,1.23 5.56,3.07c0.89,1.49 1.7,3.04 2.54,4.56c1.02,1.82 2.04,3.65 3.2399,5.69c0.34,-0.61 0.66,-1.17 0.99,-1.74c1.37,-2.45 2.75,-4.89 4.11,-7.34c0.52,-0.94 1.02,-1.87 1.85,-2.58c0.9,-0.77 1.92,-1.28 3.08,-1.51c2.94,-0.61 5.84,1.1 7.17,3.66c1.54,2.95 3.23,5.81 4.85,8.71c0.53,0.95 1.06,1.89 1.59,2.83c0.02,0.05 0.09,0.24 0.09,0.24c-0.79,-0.75 -1.6,-1.28 -2.54,-1.62c-1.71,-0.63 -3.38,-0.52 -5.02,0.23c-1.61,0.74 -2.63,2.05 -3.47,3.6c-1.66,3.05 -3.4,6.07 -5.1,9.11c-0.69,1.22 -1.34,2.46 -2.06,3.66c-1.01,1.68 -2.5,2.65 -4.38,3.04c-2.8899,0.6 -5.8399,-1.05 -7.1499,-3.68c-0.86,-1.73 -1.88,-3.39 -2.83,-5.07c-0.78,-1.4 -1.57,-2.79 -2.48,-4.37c-0.31,0.54 -0.59,1.02 -0.86,1.5c-1.09,1.92 -2.12,3.87 -3.27,5.74c-1.34,2.16 -3.21,3.72 -5.48,4.77c-2,0.93 -4.09001,1.36 -6.28001,1.23c-1.92,-0.12 -3.75999,-0.64 -5.46999,-1.59c-0.1,-0.05 -0.31,-0.23 -0.31,-0.23c0.33,-0.59 0.65,-1.18 0.98,-1.76l4.16999,-7.5c1.29,-2.29 2.59,-4.56 3.87,-6.85c1.78001,-3.18 3.55001,-6.37 5.33001,-9.55c0.61,-1.1 1.21,-2.22 1.88,-3.28c1.02,-1.6 2.5,-2.49 4.32,-2.86zM55.3597,44.55c-0.65,0 -1.3,-0.09 -1.93,-0.28l-0.06,-0.02c-0.17,-0.06 -0.34,-0.11 -0.51,-0.18c-0.15,-0.06 -0.31,-0.13 -0.46,-0.21c0,0 -0.06,-0.02 -0.09,-0.04c-1.48,-0.74 -2.65,-2.02 -3.26,-3.61c-0.02,-0.05 -0.06,-0.16 -0.06,-0.16c-0.03,-0.09 -0.09,-0.26 -0.09,-0.26l-0.12,-0.45l-0.03,-0.12c-0.32,-1.51 -0.15,-3.26 0.75,-4.8c0.98,-1.71 2.87,-3.19 5.3,-3.35l0.17,-0.01c0.13,0 0.26,-0.01 0.39,-0.01h0.16c0.21,0.01 0.42,0.02 0.63,0.05l0.17,0.03c0.15,0.02 0.28,0.04 0.42,0.07c0.17,0.03 0.34,0.08 0.55,0.14c1.97,0.58 3.53,2 4.28,3.86c0.35,0.82 0.53,1.69 0.53,2.56c0,0.88 -0.17,1.76 -0.51,2.59c-0.04,0.09 -0.09,0.18 -0.13,0.27c-0.04,0.09 -0.08,0.19 -0.13,0.28c-0.25,0.5 -0.57,0.95 -0.94,1.37c-1.32,1.5 -3.16,2.28 -5.03,2.28z"></path><g opacity="1" transform="translate(14.849609375 0)  rotate(0)"><a xlink:href="https://" xlink:title="跳转" target="_blank"><text><tspan x="0" y="42.525" font-size="40.5" line-height="0" fill="#FFFFFF" opacity="1" font-family="Roboto-Regular" font-weight="Regular" letter-spacing="0"  ></tspan><tspan x="0" y="42.525" font-size="40.5" line-height="0" fill="#FFFFFF" opacity="1" font-family="Roboto-Regular" font-weight="Regular" letter-spacing="0"  > </tspan><tspan x="10.026123046875" y="42.525" font-size="40.5" line-height="0" fill="#FFFFFF" opacity="1" font-family="Roboto-Regular" font-weight="Regular" letter-spacing="0"  > </tspan><tspan x="20.05224609375" y="42.525" font-size="40.5" line-height="0" fill="#FFFFFF" opacity="1" font-family="Roboto-Regular" font-weight="Regular" letter-spacing="0"  > </tspan><tspan x="30.078369140625" y="42.525" font-size="40.5" line-height="0" fill="#FFFFFF" opacity="1" font-family="Roboto-Regular" font-weight="Regular" letter-spacing="0"  > </tspan><tspan x="40.1044921875" y="42.525" font-size="40.5" line-height="0" fill="#FFFFFF" opacity="1" font-family="Roboto-Regular" font-weight="Regular" letter-spacing="0"  > </tspan><tspan x="50.130615234375" y="42.525" font-size="40.5" line-height="0" fill="#FFFFFF" opacity="1" font-family="Roboto-Regular" font-weight="Regular" letter-spacing="0"  > </tspan><tspan x="60.15673828125" y="42.525" font-size="40.5" line-height="0" fill="#FFFFFF" opacity="1" font-family="Poppins-Bold" font-weight="Bold" letter-spacing="0"  >Miter</tspan><tspan x="168.21073828125" y="42.525" font-size="40.5" line-height="0" fill="#FFFFFF" opacity="1" font-family="Roboto-Regular" font-weight="Regular" letter-spacing="0"  > </tspan><tspan x="178.236861328125" y="42.525" font-size="40.5" line-height="0" fill="#FFFFFF" opacity="1" font-family="Poppins-Bold" font-weight="Bold" letter-spacing="0" >Gate</tspan></text></a></g></g><defs><linearGradient id="linear_0" x1="0%" y1="0%" x2="101.99999809265137%" y2="100.99999904632568%" gradientUnits="objectBoundingBox"><stop offset="0" stop-color="#5DAFDE" stop-opacity="1" /><stop offset="1" stop-color="#47F6FF" stop-opacity="1" /></linearGradient></defs></svg>