<svg xmlns="http://www.w3.org/2000/svg" xmlns:xlink="http://www.w3.org/1999/xlink" width="70" height="70" viewBox="0 0 70 70" fill="none"><g opacity="1"  transform="translate(0 0)  rotate(0)"><g id="椭圆形" filter="url(#filter_1)"><path id="椭圆形" fill-rule="evenodd" fill="url(#linear_0)" opacity="1" d="M70 35C70 15.67 54.33 0 35 0C15.67 0 0 15.67 0 35C0 54.33 15.67 70 35 70C54.33 70 70 54.33 70 35Z"></path></g><g id="椭圆形 (轮廓)" filter="url(#filter_2)"><path id="椭圆形 (轮廓)" fill-rule="evenodd" style="fill:#3D7FFF" opacity="1" d="M35,0c19.33,0 35,15.67 35,35c0,19.33 -15.67,35 -35,35c-19.33,0 -35,-15.67 -35,-35c0,-19.33 15.67,-35 35,-35zM35,2c-18.23,0 -33,14.77 -33,33c0,18.23 14.77,33 33,33c18.23,0 33,-14.77 33,-33c0,-18.23 -14.77,-33 -33,-33z"></path></g><g opacity="0.8"  transform="translate(17.5 17.5)  rotate(0)"><path id="矩形" fill-rule="evenodd" style="fill:#FFFFFF" opacity="0" d="M0 35L34.97 35L34.97 0L0 0L0 35Z"></path><path id="形状" fill-rule="evenodd" style="fill:#FFFFFF" opacity="1" d="M32.0501,13.1244h-29.12999c-0.47,0 -0.89,-0.3 -1.03,-0.75c-0.16,-0.46 0,-0.95 0.38,-1.23l14.54999,-10.91996c0.39,-0.29 0.93,-0.29 1.31,0l14.56,10.93996c0.39,0.28 0.53,0.77 0.39,1.23c-0.14,0.43 -0.56,0.73 -1.03,0.73zM6.19141,10.9375h22.58999l-11.3,-8.46996z"></path><path id="形状" fill-rule="evenodd" style="fill:#FFFFFF" opacity="1" d="M6.66045,12.0199v17.5c-0.01,0.61 -0.5,1.1 -1.1,1.1c-0.61,0 -1.1,-0.49 -1.1,-1.1v-17.5c0,-0.61 0.49,-1.1 1.1,-1.1c0.61,0 1.1,0.49 1.1,1.1zM10.1921,12.0199v17.5c-0.01,0.61 -0.49995,1.1 -1.09995,1.1c-0.61,0 -1.1,-0.49 -1.1,-1.1v-17.5c0,-0.61 0.49,-1.1 1.1,-1.1c0.61,0 1.09995,0.49 1.09995,1.1zM15.2444,12.0199v17.5c0,0.61 -0.49,1.1 -1.1,1.1c-0.61,0 -1.1,-0.49 -1.1,-1.1v-17.5c0,-0.61 0.49,-1.1 1.1,-1.1c0.61,0 1.1,0.49 1.1,1.1zM21.9231,12.0199v17.5c-0.01,0.61 -0.5,1.1 -1.1,1.1c-0.6099,0 -1.1,-0.49 -1.1,-1.1v-17.5c0,-0.61 0.4901,-1.1 1.1,-1.1c0.61,0 1.1,0.49 1.1,1.1zM25.8578,30.6199c-0.61,0 -1.1,-0.49 -1.1,-1.1v-17.5c0,-0.61 0.49,-1.1 1.1,-1.1c0.61,0 1.1,0.49 1.1,1.1v17.5c0,0.61 -0.49,1.1 -1.1,1.1zM29.4071,30.6199c-0.61,0 -1.1,-0.49 -1.1,-1.1v-17.5c0,-0.61 0.49,-1.1 1.1,-1.1c0.61,0 1.1,0.49 1.1,1.1v17.5c0,0.61 -0.49,1.1 -1.1,1.1z"></path><path id="形状" fill-rule="evenodd" style="fill:#FFFFFF" opacity="1" d="M3.75,28.4375h27.48c0.38,0 0.73,0.19 0.92,0.53l2.66,4.37c0.21,0.33 0.21,0.75 0.02,1.1c-0.2,0.35 -0.56,0.56 -0.95,0.56h-32.79c-0.4,0 -0.75,-0.21 -0.95,-0.56c-0.19,-0.35 -0.19,-0.77 0.02,-1.1l2.66,-4.37c0.19,-0.34 0.56,-0.53 0.93,-0.53zM4.3569,30.625l-1.33,2.19h28.9l-1.33,-2.19z"></path><path id="路径" fill-rule="evenodd" style="fill:#FFFFFF" opacity="1" d="M17.487 9.34508C18.487 9.34508 19.307 8.53508 19.307 7.52508C19.307 6.87508 18.957 6.27508 18.397 5.94508C17.827 5.62508 17.137 5.62508 16.577 5.94508C16.017 6.27508 15.667 6.87508 15.667 7.52508C15.667 8.53508 16.477 9.34508 17.487 9.34508Z"></path></g></g><defs><linearGradient id="linear_0" x1="50%" y1="0%" x2="51%" y2="100%" gradientUnits="objectBoundingBox"><stop offset="0" stop-color="#0E5FFF" stop-opacity="0.441" /><stop offset="0.2664670285859347" stop-color="#000C48" stop-opacity="0.7" /><stop offset="0.4821618046387208" stop-color="#000C48" stop-opacity="0.7" /><stop offset="0.6955322671195021" stop-color="#000C46" stop-opacity="0.7" /><stop offset="1" stop-color="#0E5FFF" stop-opacity="0.441" /></linearGradient><filter id="filter_1" x="-7" y="-7" width="84" height="84" filterUnits="userSpaceOnUse" color-interpolation-filters="sRGB"><feFlood flood-opacity="0" result="feFloodId"/>
          <feColorMatrix in="SourceAlpha" type="matrix" values="0 0 0 0 0 0 0 0 0 0 0 0 0 0 0 0 0 0 127 0" result="hardAlpha"/>
          
          <feOffset dx="0" dy="0"/>
          <feGaussianBlur stdDeviation="3.5"/>
          <feComposite in2="hardAlpha" operator="arithmetic" k2="-1" k3="1"/>
          <feColorMatrix type="matrix" values="0 0 0 0 0.19607843137254902 0 0 0 0 0.7725490196078432 0 0 0 0 1 0 0 0 1 0"/>
          <feBlend mode="normal" in2="filter_feFlood" result="filter_feFlood_1"/>
          <feBlend mode="normal" in="SourceGraphic" in2="filter_1" result="shape"/></filter><filter id="filter_2" x="-7" y="-7" width="84" height="84" filterUnits="userSpaceOnUse" color-interpolation-filters="sRGB"><feFlood flood-opacity="0" result="feFloodId"/>
          <feColorMatrix in="SourceAlpha" type="matrix" values="0 0 0 0 0 0 0 0 0 0 0 0 0 0 0 0 0 0 127 0" result="hardAlpha"/>
          
          <feOffset dx="0" dy="0"/>
          <feGaussianBlur stdDeviation="3.5"/>
          <feComposite in2="hardAlpha" operator="arithmetic" k2="-1" k3="1"/>
          <feColorMatrix type="matrix" values="0 0 0 0 0.19607843137254902 0 0 0 0 0.7725490196078432 0 0 0 0 1 0 0 0 1 0"/>
          <feBlend mode="normal" in2="filter_feFlood" result="filter_feFlood_1"/>
          <feBlend mode="normal" in="SourceGraphic" in2="filter_2" result="shape"/></filter></defs></svg>