<svg xmlns="http://www.w3.org/2000/svg" xmlns:xlink="http://www.w3.org/1999/xlink" width="70" height="70" viewBox="0 0 70 70" fill="none"><g opacity="1"  transform="translate(0 0)  rotate(0)"><g id="椭圆形" filter="url(#filter_1)"><path id="椭圆形" fill-rule="evenodd" fill="url(#linear_0)" opacity="1" d="M70 35C70 15.67 54.33 0 35 0C15.67 0 0 15.67 0 35C0 54.33 15.67 70 35 70C54.33 70 70 54.33 70 35Z"></path></g><g id="椭圆形 (轮廓)" filter="url(#filter_2)"><path id="椭圆形 (轮廓)" fill-rule="evenodd" style="fill:#3D7FFF" opacity="1" d="M35,0c19.33,0 35,15.67 35,35c0,19.33 -15.67,35 -35,35c-19.33,0 -35,-15.67 -35,-35c0,-19.33 15.67,-35 35,-35zM35,2c-18.23,0 -33,14.77 -33,33c0,18.23 14.77,33 33,33c18.23,0 33,-14.77 33,-33c0,-18.23 -14.77,-33 -33,-33z"></path></g><g opacity="0.8"  transform="translate(18.375 18.375)  rotate(0)"><g opacity="1"  transform="translate(0 0)  rotate(0)"><path id="矩形" fill-rule="evenodd" style="fill:#FFFFFF" opacity="0" d="M0 33.25L33.25 33.25L33.25 0L0 0L0 33.25Z"></path><path id="形状" fill-rule="evenodd" style="fill:#FFFFFF" opacity="1" d="M15.74,7.9l0.05,7.89h-7.89c-4.37,0 -7.9,-3.53 -7.9,-7.89c0,-4.37 3.53,-7.85 7.9,-7.9c4.31,0 7.84,3.53 7.84,7.9zM17.4561,15.79v-7.89c0,-4.37 3.53,-7.9 7.9,-7.9c4.36,0.05 7.84,3.53 7.84,7.9c0,4.36 -3.53,7.89 -7.9,7.89zM7.8994,13.1397h5.19v-5.24c0,-2.91 -2.28,-5.25 -5.19,-5.25c-2.91,0 -5.25,2.34 -5.25,5.25c0,2.91 2.34,5.24 5.25,5.24zM30.596,7.8997c0,-2.91 -2.33,-5.25 -5.24,-5.25c-2.91,0 -5.25,2.34 -5.25,5.25v5.24h5.25c2.91,0 5.24,-2.33 5.24,-5.24zM15.74,25.3563c0,4.36 -3.53,7.89 -7.9,7.89c-4.36,0 -7.84,-3.53 -7.84,-7.89c0,-4.37 3.53,-7.9 7.9,-7.9h7.89zM33.2461,25.3563c0,4.36 -3.53,7.89 -7.89,7.89c-4.37,0 -7.9,-3.53 -7.9,-7.89v-7.9h7.9c4.36,0 7.89,3.53 7.89,7.9zM2.6494,25.356c0,2.91 2.34,5.24 5.25,5.24c2.91,0 5.19,-2.33 5.19,-5.24v-5.25h-5.19c-2.91,0 -5.25,2.34 -5.25,5.25zM25.356,20.106h-5.25v5.25c0,2.91 2.34,5.24 5.25,5.24c2.91,0 5.24,-2.33 5.24,-5.24c0,-2.91 -2.33,-5.25 -5.24,-5.25z"></path></g></g></g><defs><linearGradient id="linear_0" x1="50%" y1="0%" x2="51%" y2="100%" gradientUnits="objectBoundingBox"><stop offset="0" stop-color="#0E5FFF" stop-opacity="0.441" /><stop offset="0.2664670285859347" stop-color="#000C48" stop-opacity="0.7" /><stop offset="0.4821618046387208" stop-color="#000C48" stop-opacity="0.7" /><stop offset="0.6955322671195021" stop-color="#000C46" stop-opacity="0.7" /><stop offset="1" stop-color="#0E5FFF" stop-opacity="0.441" /></linearGradient><filter id="filter_1" x="-7" y="-7" width="84" height="84" filterUnits="userSpaceOnUse" color-interpolation-filters="sRGB"><feFlood flood-opacity="0" result="feFloodId"/>
          <feColorMatrix in="SourceAlpha" type="matrix" values="0 0 0 0 0 0 0 0 0 0 0 0 0 0 0 0 0 0 127 0" result="hardAlpha"/>
          
          <feOffset dx="0" dy="0"/>
          <feGaussianBlur stdDeviation="3.5"/>
          <feComposite in2="hardAlpha" operator="arithmetic" k2="-1" k3="1"/>
          <feColorMatrix type="matrix" values="0 0 0 0 0.19607843137254902 0 0 0 0 0.7725490196078432 0 0 0 0 1 0 0 0 1 0"/>
          <feBlend mode="normal" in2="filter_feFlood" result="filter_feFlood_1"/>
          <feBlend mode="normal" in="SourceGraphic" in2="filter_1" result="shape"/></filter><filter id="filter_2" x="-7" y="-7" width="84" height="84" filterUnits="userSpaceOnUse" color-interpolation-filters="sRGB"><feFlood flood-opacity="0" result="feFloodId"/>
          <feColorMatrix in="SourceAlpha" type="matrix" values="0 0 0 0 0 0 0 0 0 0 0 0 0 0 0 0 0 0 127 0" result="hardAlpha"/>
          
          <feOffset dx="0" dy="0"/>
          <feGaussianBlur stdDeviation="3.5"/>
          <feComposite in2="hardAlpha" operator="arithmetic" k2="-1" k3="1"/>
          <feColorMatrix type="matrix" values="0 0 0 0 0.19607843137254902 0 0 0 0 0.7725490196078432 0 0 0 0 1 0 0 0 1 0"/>
          <feBlend mode="normal" in2="filter_feFlood" result="filter_feFlood_1"/>
          <feBlend mode="normal" in="SourceGraphic" in2="filter_2" result="shape"/></filter></defs></svg>