<svg xmlns="http://www.w3.org/2000/svg" xmlns:xlink="http://www.w3.org/1999/xlink" width="70" height="70" viewBox="0 0 70 70" fill="none"><g opacity="1"  transform="translate(0 0)  rotate(0)"><g id="椭圆形" filter="url(#filter_1)"><path id="椭圆形" fill-rule="evenodd" fill="url(#linear_0)" opacity="1" d="M70 35C70 15.67 54.33 0 35 0C15.67 0 0 15.67 0 35C0 54.33 15.67 70 35 70C54.33 70 70 54.33 70 35Z"></path></g><g id="椭圆形 (轮廓)" filter="url(#filter_2)"><path id="椭圆形 (轮廓)" fill-rule="evenodd" style="fill:#3D7FFF" opacity="1" d="M35,0c19.33,0 35,15.67 35,35c0,19.33 -15.67,35 -35,35c-19.33,0 -35,-15.67 -35,-35c0,-19.33 15.67,-35 35,-35zM35,2c-18.23,0 -33,14.77 -33,33c0,18.23 14.77,33 33,33c18.23,0 33,-14.77 33,-33c0,-18.23 -14.77,-33 -33,-33z"></path></g><g opacity="0.8"  transform="translate(14.875 14.875)  rotate(0)"><path id="矩形" fill-rule="evenodd" style="fill:#FFFFFF" opacity="0" d="M0 40.25L40.25 40.25L40.25 0L0 0L0 40.25Z"></path><path id="形状" fill-rule="evenodd" style="fill:#FFFFFF" opacity="1" d="M15.2836,33.0464c-0.52,0.42 -1.17,0.65 -1.84,0.65c-0.89,0 -1.73,-0.4 -2.29,-1.09c-0.46,-0.57 -0.67,-1.27 -0.65,-1.95c-0.13,0.02 -0.41,0.03 -0.41,0.03c-0.88996,0 -1.71996,-0.4 -2.27996,-1.1c-0.62,-0.75 -0.78,-1.73 -0.55,-2.61c-0.65,-0.14 -1.23,-0.5 -1.65,-1.02c-0.49,-0.61 -0.72,-1.38 -0.64,-2.16l0.09,-0.47c-0.43,-0.19 -0.81,-0.49 -1.11,-0.86c-0.49,-0.61 -0.72,-1.37 -0.63,-2.15c0.08,-0.78 0.47,-1.48 1.08,-1.98l0.21,-0.17l-1.93,-3.15c-0.26,-0.42 -0.21,-0.96 0.13,-1.33l7.86996,-8.52997c0.39,-0.42 1.02,-0.48 1.47,-0.14l3.72,2.74l1.28,-1.07l0.59,-0.25l13.38,-1.5c0.41,-0.05 0.84,0.16 1.06,0.52l5.31,8.74997c0.26,0.42 0.2,0.97 -0.14,1.33l-4.95,5.27l2.01,2.07c1.3,1.19 1.38,3.29 0.15,4.63c-0.48,0.51 -1.08,0.84 -1.71,0.98c0.1,0.92 -0.18,1.89 -0.86,2.63c-0.99,1.08 -2.55,1.35 -3.82,0.76c-0.14,0.4 -0.37,0.77 -0.67,1.09c-0.59,0.64 -1.41,1.02 -2.29,1.05c-0.82,0.03 -1.59,-0.22 -2.21,-0.72c-0.14,0.35 -0.34,0.67 -0.6,0.94c-0.59,0.65 -1.41,1.03 -2.42,1.07c-0.84,0 -1.63,-0.31 -2.32,-0.96l-1.66,-1.88zM13.247,12.8677c0.35,0.38 0.93,0.8 1.78,0.83c3.5547,0.1185 5.53,-1.9178 5.5983,-1.9882l0.0017,-0.0018c0.42,-0.45 1.11,-0.47 1.56,-0.06c0.29,0.27 0.4,0.66 0.33,1.02l6.86,5.05c0.05,0.04 0.13,0.12 0.13,0.12l1.35,1.39l4.32,-4.59l-4.51,-7.42997l-12.35,1.38zM29.897,27.6859l-2.13,-1.96c-0.45,-0.41 -0.48,-1.11 -0.06,-1.56c0.4,-0.44 1.07,-0.47 1.56,-0.06l2.13,1.97c0.45,0.4 1.13,0.37 1.54,-0.07c0.41,-0.44 0.38,-1.14 -0.06,-1.55l-4.89,-5.01l-7.04,-5.2c-1.21,0.8 -3.25,1.74 -6,1.66c-2.98,-0.1 -4.13,-2.71 -4.17,-2.82c-0.2,-0.45 -0.07,-0.97 0.3,-1.28l3.06,-2.57997l-2.5,-1.85l-6.63996,7.19997l1.35,2.19l0.09,-0.07c1.22,-0.98 3.16,-0.77 4.13996,0.44c0.62,0.78 0.78,1.77 0.53,2.66c0.43,0.17 0.82,0.45 1.12,0.82c0.62,0.77 0.79,1.76 0.54,2.65c0.64,0.13 1.24,0.47 1.66,0.99c0.45,0.57 0.68,1.26 0.65,1.98c0.99,-0.13 2.05,0.24 2.69,1.04c0.5,0.61 0.72,1.37 0.64,2.15c-0.07,0.61 -0.31,1.17 -0.71,1.62l1.58,1.79c0.21,0.18 0.47,0.27 0.75,0.26c0.29,-0.01 0.56,-0.14 0.76,-0.35c0.38,-0.42 0.32,-1.18 -0.13,-1.62l-0.97,-0.89c-0.45,-0.41 -0.48,-1.11 -0.06,-1.56c0.41,-0.45 1.11,-0.48 1.56,-0.06l0.97,0.9l2.18,2.01c0.22,0.2 0.5,0.31 0.79,0.29c0.29,-0.01 0.56,-0.14 0.76,-0.35c0.2,-0.22 0.3,-0.5 0.29,-0.79c-0.01,-0.28 -0.13,-0.54 -0.33,-0.74l-1.51,-1.39c-0.44,-0.41 -0.47,-1.11 -0.06,-1.56c0.41,-0.45 1.11,-0.47 1.58,-0.05l1.51,1.4l1.46,1.35c0.45,0.41 1.14,0.38 1.55,-0.06c0.41,-0.45 0.38,-1.14 -0.06,-1.55zM5.51364,20.5529c-0.02,0.19 0.04,0.38 0.16,0.53c0.14,0.18 0.35,0.28 0.57,0.28c0.12,0 0.29,-0.03 0.46,-0.17l2.04,-1.64c0.31,-0.25 0.36,-0.71 0.11,-1.03c-0.14,-0.17 -0.35,-0.27 -0.57,-0.27c-0.12,0 -0.29,0.03 -0.46,0.16l-2.04,1.65c-0.15,0.12 -0.25,0.29 -0.27,0.49zM10.5094,22.0029c-0.14,-0.17 -0.35,-0.27 -0.56996,-0.27c-0.12,0 -0.29,0.03 -0.46,0.16l-2.04,1.65c-0.15,0.12 -0.25,0.29 -0.27,0.49c-0.02,0.19 0.04,0.38 0.16,0.53c0.14,0.18 0.35,0.28 0.57,0.28c0.12,0 0.29,-0.03 0.46,-0.17l2.03996,-1.64c0.31,-0.25 0.36,-0.71 0.11,-1.03zM11.6781,25.5325l-2.03996,1.65c-0.31,0.25 -0.36,0.71 -0.11,1.02c0.14,0.18 0.35,0.28 0.56996,0.28c0.12,0 0.29,-0.03 0.46,-0.17l2.04,-1.64c0.15,-0.12 0.25,-0.3 0.27,-0.49c0.02,-0.2 -0.04,-0.39 -0.16,-0.54c-0.14,-0.17 -0.35,-0.27 -0.57,-0.27c-0.12,0 -0.29,0.03 -0.46,0.16zM15.0233,28.545l-2.04,1.65c-0.31,0.25 -0.36,0.71 -0.11,1.02c0.14,0.18 0.35,0.28 0.57,0.28c0.12,0 0.29,-0.03 0.46,-0.17l2.04,-1.64c0.15,-0.12 0.25,-0.3 0.27,-0.49c0.02,-0.19 -0.04,-0.39 -0.16,-0.54c-0.14,-0.17 -0.35,-0.27 -0.57,-0.27c-0.12,0 -0.29,0.03 -0.46,0.16z"></path></g></g><defs><linearGradient id="linear_0" x1="50%" y1="0%" x2="51%" y2="100%" gradientUnits="objectBoundingBox"><stop offset="0" stop-color="#0E5FFF" stop-opacity="0.441" /><stop offset="0.2664670285859347" stop-color="#000C48" stop-opacity="0.7" /><stop offset="0.4821618046387208" stop-color="#000C48" stop-opacity="0.7" /><stop offset="0.6955322671195021" stop-color="#000C46" stop-opacity="0.7" /><stop offset="1" stop-color="#0E5FFF" stop-opacity="0.441" /></linearGradient><filter id="filter_1" x="-7" y="-7" width="84" height="84" filterUnits="userSpaceOnUse" color-interpolation-filters="sRGB"><feFlood flood-opacity="0" result="feFloodId"/>
          <feColorMatrix in="SourceAlpha" type="matrix" values="0 0 0 0 0 0 0 0 0 0 0 0 0 0 0 0 0 0 127 0" result="hardAlpha"/>
          
          <feOffset dx="0" dy="0"/>
          <feGaussianBlur stdDeviation="3.5"/>
          <feComposite in2="hardAlpha" operator="arithmetic" k2="-1" k3="1"/>
          <feColorMatrix type="matrix" values="0 0 0 0 0.19607843137254902 0 0 0 0 0.7725490196078432 0 0 0 0 1 0 0 0 1 0"/>
          <feBlend mode="normal" in2="filter_feFlood" result="filter_feFlood_1"/>
          <feBlend mode="normal" in="SourceGraphic" in2="filter_1" result="shape"/></filter><filter id="filter_2" x="-7" y="-7" width="84" height="84" filterUnits="userSpaceOnUse" color-interpolation-filters="sRGB"><feFlood flood-opacity="0" result="feFloodId"/>
          <feColorMatrix in="SourceAlpha" type="matrix" values="0 0 0 0 0 0 0 0 0 0 0 0 0 0 0 0 0 0 127 0" result="hardAlpha"/>
          
          <feOffset dx="0" dy="0"/>
          <feGaussianBlur stdDeviation="3.5"/>
          <feComposite in2="hardAlpha" operator="arithmetic" k2="-1" k3="1"/>
          <feColorMatrix type="matrix" values="0 0 0 0 0.19607843137254902 0 0 0 0 0.7725490196078432 0 0 0 0 1 0 0 0 1 0"/>
          <feBlend mode="normal" in2="filter_feFlood" result="filter_feFlood_1"/>
          <feBlend mode="normal" in="SourceGraphic" in2="filter_2" result="shape"/></filter></defs></svg>