<svg xmlns="http://www.w3.org/2000/svg" xmlns:xlink="http://www.w3.org/1999/xlink" width="70" height="70" viewBox="0 0 70 70" fill="none"><g opacity="1"  transform="translate(0 0)  rotate(0)"><g opacity="1"  transform="translate(0 0)  rotate(0)"><g id="椭圆形" filter="url(#filter_2)"><path id="椭圆形" fill-rule="evenodd" fill="url(#linear_0)" opacity="1" d="M70 35C70 15.67 54.33 0 35 0C15.67 0 0 15.67 0 35C0 54.33 15.67 70 35 70C54.33 70 70 54.33 70 35Z"></path></g><g id="椭圆形 (轮廓)" filter="url(#filter_3)"><path id="椭圆形 (轮廓)" fill-rule="evenodd" style="fill:#3D7FFF" opacity="1" d="M35,0c19.33,0 35,15.67 35,35c0,19.33 -15.67,35 -35,35c-19.33,0 -35,-15.67 -35,-35c0,-19.33 15.67,-35 35,-35zM35,2c-18.23,0 -33,14.77 -33,33c0,18.23 14.77,33 33,33c18.23,0 33,-14.77 33,-33c0,-18.23 -14.77,-33 -33,-33z"></path></g></g><g opacity="0.8"  transform="translate(17 17)  rotate(0)"><path id="矩形" fill-rule="evenodd" style="fill:#FFFFFF" opacity="0" d="M0 36L36 36L36 0L0 0L0 36Z"></path><path id="形状" fill-rule="evenodd" style="fill:#FFFFFF" opacity="1" d="M15.74,34.84v-3.6c-2.04,-0.34 -3.92,-1.15 -5.54,-2.3l-2.55,2.56c-0.44,0.43 -1.15,0.43 -1.59,0l-1.59,-1.59c-0.44,-0.45 -0.44,-1.15 0,-1.59l2.55,-2.55c-1.16,-1.62 -1.97,-3.5 -2.32,-5.54h-3.58c-0.62,0 -1.12,-0.5 -1.12,-1.12v-2.25c0,-0.62 0.5,-1.12 1.12,-1.12h3.58c0.36,-2.04 1.18,-3.91 2.34,-5.53l-2.57,-2.56c-0.44,-0.44 -0.44,-1.15 0,-1.59l1.59,-1.59c0.44,-0.44 1.15,-0.44 1.59,0l2.58,2.58c1.61,-1.15 3.47,-1.98 5.51,-2.33v-3.6c0,-0.62 0.5,-1.12 1.12,-1.12h2.25c0.62,0 1.12,0.5 1.12,1.12v3.6c2.04,0.35 3.91,1.16 5.53,2.3l2.56,-2.55c0.44,-0.44 1.15,-0.44 1.59,0l1.59,1.59c0.43,0.44 0.43,1.15 0,1.59l-2.55,2.55c1.15,1.62 1.97,3.49 2.32,5.54h3.57c0.62,0 1.13,0.5 1.13,1.12v2.25c0,0.62 -0.51,1.12 -1.13,1.12h-3.57c-0.36,2.04 -1.18,3.91 -2.34,5.52l2.57,2.57c0.43,0.44 0.43,1.15 0,1.59l-1.59,1.59c-0.44,0.43 -1.15,0.43 -1.59,0l-2.58,-2.58c-1.62,1.14 -3.47,1.98 -5.51,2.32v3.6c0,0.62 -0.5,1.13 -1.12,1.13h-2.25c-0.62,0 -1.12,-0.51 -1.12,-1.13zM26.9717,17.9817c0,-4.96 -4.02,-8.99 -8.99,-8.99c-4.96,0 -8.99,4.03 -8.99,8.99c0,4.97 4.03,8.99 8.99,8.99c4.97,0 8.99,-4.02 8.99,-8.99z"></path></g></g><defs><linearGradient id="linear_0" x1="50%" y1="0%" x2="51%" y2="100%" gradientUnits="objectBoundingBox"><stop offset="0" stop-color="#0E5FFF" stop-opacity="0.441" /><stop offset="0.2664670285859347" stop-color="#000C48" stop-opacity="0.7" /><stop offset="0.4821618046387208" stop-color="#000C48" stop-opacity="0.7" /><stop offset="0.6955322671195021" stop-color="#000C46" stop-opacity="0.7" /><stop offset="1" stop-color="#0E5FFF" stop-opacity="0.441" /></linearGradient><filter id="filter_2" x="-7" y="-7" width="84" height="84" filterUnits="userSpaceOnUse" color-interpolation-filters="sRGB"><feFlood flood-opacity="0" result="feFloodId"/>
          <feColorMatrix in="SourceAlpha" type="matrix" values="0 0 0 0 0 0 0 0 0 0 0 0 0 0 0 0 0 0 127 0" result="hardAlpha"/>
          
          <feOffset dx="0" dy="0"/>
          <feGaussianBlur stdDeviation="3.5"/>
          <feComposite in2="hardAlpha" operator="arithmetic" k2="-1" k3="1"/>
          <feColorMatrix type="matrix" values="0 0 0 0 0.19607843137254902 0 0 0 0 0.7725490196078432 0 0 0 0 1 0 0 0 1 0"/>
          <feBlend mode="normal" in2="filter_feFlood" result="filter_feFlood_1"/>
          <feBlend mode="normal" in="SourceGraphic" in2="filter_2" result="shape"/></filter><filter id="filter_3" x="-7" y="-7" width="84" height="84" filterUnits="userSpaceOnUse" color-interpolation-filters="sRGB"><feFlood flood-opacity="0" result="feFloodId"/>
          <feColorMatrix in="SourceAlpha" type="matrix" values="0 0 0 0 0 0 0 0 0 0 0 0 0 0 0 0 0 0 127 0" result="hardAlpha"/>
          
          <feOffset dx="0" dy="0"/>
          <feGaussianBlur stdDeviation="3.5"/>
          <feComposite in2="hardAlpha" operator="arithmetic" k2="-1" k3="1"/>
          <feColorMatrix type="matrix" values="0 0 0 0 0.19607843137254902 0 0 0 0 0.7725490196078432 0 0 0 0 1 0 0 0 1 0"/>
          <feBlend mode="normal" in2="filter_feFlood" result="filter_feFlood_1"/>
          <feBlend mode="normal" in="SourceGraphic" in2="filter_3" result="shape"/></filter></defs></svg>