<svg xmlns="http://www.w3.org/2000/svg" xmlns:xlink="http://www.w3.org/1999/xlink" width="70" height="70" viewBox="0 0 70 70" fill="none"><g opacity="1"  transform="translate(0 0)  rotate(0)"><g opacity="1"  transform="translate(0 0)  rotate(0)"><g id="椭圆形" filter="url(#filter_2)"><path id="椭圆形" fill-rule="evenodd" fill="url(#linear_0)" opacity="1" d="M70 35C70 15.67 54.33 0 35 0C15.67 0 0 15.67 0 35C0 54.33 15.67 70 35 70C54.33 70 70 54.33 70 35Z"></path></g><g id="椭圆形 (轮廓)" filter="url(#filter_3)"><path id="椭圆形 (轮廓)" fill-rule="evenodd" style="fill:#3D7FFF" opacity="1" d="M35,0c19.33,0 35,15.67 35,35c0,19.33 -15.67,35 -35,35c-19.33,0 -35,-15.67 -35,-35c0,-19.33 15.67,-35 35,-35zM35,2c-18.23,0 -33,14.77 -33,33c0,18.23 14.77,33 33,33c18.23,0 33,-14.77 33,-33c0,-18.23 -14.77,-33 -33,-33z"></path></g></g><g opacity="0.8"  transform="translate(17 17)  rotate(0)"><path id="矩形" fill-rule="evenodd" style="fill:#FFFFFF" opacity="0" d="M0 36L36 36L36 0L0 0L0 36Z"></path><path id="形状" fill-rule="evenodd" style="fill:#FFFFFF" opacity="1" d="M7.18531,5.48438h21.69999c2.04,0 3.72,1.69999 3.74,3.77v14.30002c0,2.1 -1.68,3.81 -3.74,3.81h-6.18l-2.38,2.39c-0.72,0.72 -1.67,1.07 -2.63,1.07c-0.98,0 -1.96,-0.37 -2.72,-1.13l-2.33,-2.33h-5.45999c-2.06,0 -3.74,-1.71 -3.74,-3.81v-14.26003c0,-2.09999 1.68,-3.80999 3.74,-3.80999zM13.1996,24.7153c0.35,0 0.69,0.14 0.94,0.39l2.72,2.72c0.45,0.45 1.17,0.47 1.59,0.05l2.77,-2.77c0.25,-0.25 0.59,-0.39 0.94,-0.39h6.73c0.59,0 1.08,-0.53 1.08,-1.16v-14.28002c0,-0.63 -0.49,-1.14001 -1.08,-1.14001h-21.69999c-0.61,0 -1.09,0.52001 -1.09,1.16v14.26003c0,0.63 0.5,1.16 1.09,1.16z"></path><path id="路径" fill-rule="evenodd" style="fill:#FFFFFF" opacity="1" d="M11.405 18.9143C12.505 18.9143 13.395 18.0243 13.395 16.9243C13.395 15.8243 12.505 14.9343 11.405 14.9343C10.305 14.9343 9.41504 15.8243 9.41504 16.9243C9.41504 18.0243 10.305 18.9143 11.405 18.9143Z"></path><path id="路径" fill-rule="evenodd" style="fill:#FFFFFF" opacity="1" d="M18.0354 18.9143C19.1354 18.9143 20.0254 18.0243 20.0254 16.9243C20.0254 15.8243 19.1354 14.9343 18.0354 14.9343C16.9354 14.9343 16.0454 15.8243 16.0454 16.9243C16.0454 18.0243 16.9354 18.9143 18.0354 18.9143Z"></path><path id="路径" fill-rule="evenodd" style="fill:#FFFFFF" opacity="1" d="M24.6658 18.9143C25.7658 18.9143 26.6558 18.0243 26.6558 16.9243C26.6558 15.8243 25.7658 14.9343 24.6658 14.9343C23.5658 14.9343 22.6758 15.8243 22.6758 16.9243C22.6758 18.0243 23.5658 18.9143 24.6658 18.9143Z"></path></g></g><defs><linearGradient id="linear_0" x1="50%" y1="0%" x2="51%" y2="100%" gradientUnits="objectBoundingBox"><stop offset="0" stop-color="#0E5FFF" stop-opacity="0.441" /><stop offset="0.2664670285859347" stop-color="#000C48" stop-opacity="0.7" /><stop offset="0.4821618046387208" stop-color="#000C48" stop-opacity="0.7" /><stop offset="0.6955322671195021" stop-color="#000C46" stop-opacity="0.7" /><stop offset="1" stop-color="#0E5FFF" stop-opacity="0.441" /></linearGradient><filter id="filter_2" x="-7" y="-7" width="84" height="84" filterUnits="userSpaceOnUse" color-interpolation-filters="sRGB"><feFlood flood-opacity="0" result="feFloodId"/>
          <feColorMatrix in="SourceAlpha" type="matrix" values="0 0 0 0 0 0 0 0 0 0 0 0 0 0 0 0 0 0 127 0" result="hardAlpha"/>
          
          <feOffset dx="0" dy="0"/>
          <feGaussianBlur stdDeviation="3.5"/>
          <feComposite in2="hardAlpha" operator="arithmetic" k2="-1" k3="1"/>
          <feColorMatrix type="matrix" values="0 0 0 0 0.19607843137254902 0 0 0 0 0.7725490196078432 0 0 0 0 1 0 0 0 1 0"/>
          <feBlend mode="normal" in2="filter_feFlood" result="filter_feFlood_1"/>
          <feBlend mode="normal" in="SourceGraphic" in2="filter_2" result="shape"/></filter><filter id="filter_3" x="-7" y="-7" width="84" height="84" filterUnits="userSpaceOnUse" color-interpolation-filters="sRGB"><feFlood flood-opacity="0" result="feFloodId"/>
          <feColorMatrix in="SourceAlpha" type="matrix" values="0 0 0 0 0 0 0 0 0 0 0 0 0 0 0 0 0 0 127 0" result="hardAlpha"/>
          
          <feOffset dx="0" dy="0"/>
          <feGaussianBlur stdDeviation="3.5"/>
          <feComposite in2="hardAlpha" operator="arithmetic" k2="-1" k3="1"/>
          <feColorMatrix type="matrix" values="0 0 0 0 0.19607843137254902 0 0 0 0 0.7725490196078432 0 0 0 0 1 0 0 0 1 0"/>
          <feBlend mode="normal" in2="filter_feFlood" result="filter_feFlood_1"/>
          <feBlend mode="normal" in="SourceGraphic" in2="filter_3" result="shape"/></filter></defs></svg>