<svg xmlns="http://www.w3.org/2000/svg" xmlns:xlink="http://www.w3.org/1999/xlink" width="41.22216796875" height="27.3822021484375" viewBox="0 0 41.22216796875 27.3822021484375" fill="none"><g opacity="1"  transform="translate(7.111328125 0)  rotate(0)"><g id="椭圆形" filter="url(#filter_2)"><path id="椭圆形" fill-rule="evenodd" style="fill:#000000" opacity="0.2" d="M27 15.291C27 12.541 20.95 10.311 13.5 10.311C6.05 10.311 0 12.541 0 15.291C0 18.041 6.05 20.271 13.5 20.271C20.95 20.271 27 18.041 27 15.291Z"></path></g><g opacity="1"  transform="translate(0.04443359375 0)  rotate(0)"><g opacity="1"  transform="translate(0 0)  rotate(0)"><g opacity="1"  transform="translate(0 0.041748046875)  rotate(0)"><path id="路径" fill-rule="evenodd" fill="url(#linear_0)" opacity="1" d="M6.67465 17.1053C8.56465 17.1053 10.0946 15.6953 10.0946 13.9553C10.0946 12.2053 8.56465 10.7953 6.67465 10.7953C4.79465 10.7953 3.26465 12.2053 3.26465 13.9553C3.26465 15.6953 4.79465 17.1053 6.67465 17.1053Z"></path><path id="路径" fill-rule="evenodd" fill="url(#linear_1)" opacity="1" d="M6.52492 15.3835C7.34492 15.3835 8.01492 14.8035 8.01492 14.0935C8.01492 13.3835 7.34492 12.8035 6.52492 12.8035C5.70492 12.8035 5.04492 13.3835 5.04492 14.0935C5.04492 14.8035 5.70492 15.3835 6.52492 15.3835Z"></path><path id="路径" fill-rule="evenodd" fill="url(#linear_2)" opacity="1" d="M22.6996 17.1053C24.5896 17.1053 26.1195 15.6953 26.1195 13.9553C26.1195 12.2053 24.5896 10.7953 22.6996 10.7953C20.8195 10.7953 19.2896 12.2053 19.2896 13.9553C19.2896 15.6953 20.8195 17.1053 22.6996 17.1053Z"></path><path id="路径" fill-rule="evenodd" fill="url(#linear_3)" opacity="1" d="M22.8472 15.3835C23.6672 15.3835 24.3372 14.8035 24.3372 14.0935C24.3372 13.3835 23.6672 12.8035 22.8472 12.8035C22.0272 12.8035 21.3672 13.3835 21.3672 14.0935C21.3672 14.8035 22.0272 15.3835 22.8472 15.3835Z"></path><path id="路径" fill-rule="evenodd" fill="url(#linear_4)" opacity="1" d="M28.1929 9.64783L28.1929 12.0078C28.1929 12.2878 28.4329 12.5178 28.7329 12.5178L29.9729 12.5178L29.9729 11.1278L29.8229 10.9678C29.3329 10.4678 28.7929 10.0178 28.1929 9.64783Z"></path><path id="形状" fill-rule="evenodd" fill="url(#linear_5)" opacity="1" d="M11.4294,8.43309h-7.62003c0.89,-4.06 3.93,-7.1 7.62003,-7.37zM12.5711,1.06309c3.5,0.45 6.17,3.6 7.62,7.37h-7.62z"></path></g></g></g></g><defs><filter id="filter_2" x="-3.555555555555556" y="6.755479600694445" width="34.111111111111114" height="17.066666666666666" filterUnits="userSpaceOnUse" color-interpolation-filters="sRGB"><feFlood flood-opacity="0" result="BackgroundImageFix"/>
          <feBlend mode="normal" in="SourceGraphic" in2="BackgroundImageFix" result="shape"/>
          <feGaussianBlur stdDeviation="1.777777777777778" result="effect1_foregroundBlur" /></filter><linearGradient id="linear_0" x1="82.77645485724179%" y1="14.98250800148071%" x2="0%" y2="189.81407965701166%" gradientUnits="objectBoundingBox"><stop offset="0" stop-color="#12FEE0" stop-opacity="1" /><stop offset="1" stop-color="#026DB2" stop-opacity="1" /></linearGradient><linearGradient id="linear_1" x1="61.15808823529392%" y1="124.853515625%" x2="62.15808823529392%" y2="-19.21874999999318%" gradientUnits="objectBoundingBox"><stop offset="0" stop-color="#12FEE0" stop-opacity="1" /><stop offset="1" stop-color="#026DB2" stop-opacity="1" /></linearGradient><linearGradient id="linear_2" x1="82.77645485724179%" y1="14.98250800148071%" x2="0%" y2="189.81407965701166%" gradientUnits="objectBoundingBox"><stop offset="0" stop-color="#12FEE0" stop-opacity="1" /><stop offset="1" stop-color="#026DB2" stop-opacity="1" /></linearGradient><linearGradient id="linear_3" x1="61.15808823529392%" y1="124.853515625%" x2="62.15808823529392%" y2="-19.21874999999318%" gradientUnits="objectBoundingBox"><stop offset="0" stop-color="#12FEE0" stop-opacity="1" /><stop offset="1" stop-color="#026DB2" stop-opacity="1" /></linearGradient><linearGradient id="linear_4" x1="100%" y1="50%" x2="0%" y2="141.7336047453091%" gradientUnits="objectBoundingBox"><stop offset="0" stop-color="#12FEE0" stop-opacity="1" /><stop offset="1" stop-color="#026DB2" stop-opacity="1" /></linearGradient><linearGradient id="linear_5" x1="61.15808823529392%" y1="124.853515625%" x2="62.15808823529392%" y2="-19.21874999999318%" gradientUnits="objectBoundingBox"><stop offset="0" stop-color="#12FEE0" stop-opacity="1" /><stop offset="1" stop-color="#026DB2" stop-opacity="1" /></linearGradient></defs></svg>