<svg xmlns="http://www.w3.org/2000/svg" xmlns:xlink="http://www.w3.org/1999/xlink" width="22.00048828125" height="23" viewBox="0 0 22.00048828125 23" fill="none"><g opacity="1"  transform="translate(0.00048828125 0)  rotate(0)"><g opacity="1"  transform="translate(0 0)  rotate(0)"><g opacity="1"  transform="translate(0 0)  rotate(0)"><g opacity="1"  transform="translate(0 0)  rotate(0)"><mask id="mask-0" fill="white"><path d="M0 19.94C0 21.27 1.05 22.35 2.32 22.35L19.15 22.35C20.43 22.35 21.47 21.27 21.47 19.94L21.47 8.92C21.47 8.81 21.46 8.7 21.45 8.59C21.4 8.24 21.29 7.91 21.1 7.61C20.97 7.42 20.81 7.25 20.63 7.1L20.25 6.79L12.74 0.67C11.64 -0.22 9.84 -0.22 8.74 0.67L1.22 6.79L0.84 7.1C0.66 7.25 0.5 7.42 0.37 7.61C0.12 8.01 0 8.46 0 8.92L0 19.94Z"  ></path></mask><g mask="url(#mask-0)"><path id="蒙版" fill-rule="evenodd" fill="url(#linear_0)" opacity="1" d="M0 19.94C0 21.27 1.05 22.35 2.32 22.35L19.15 22.35C20.43 22.35 21.47 21.27 21.47 19.94L21.47 8.92C21.47 8.81 21.46 8.7 21.45 8.59C21.4 8.24 21.29 7.91 21.1 7.61C20.97 7.42 20.81 7.25 20.63 7.1L20.25 6.79L12.74 0.67C11.64 -0.22 9.84 -0.22 8.74 0.67L1.22 6.79L0.84 7.1C0.66 7.25 0.5 7.42 0.37 7.61C0.12 8.01 0 8.46 0 8.92L0 19.94Z"></path></g><g mask="url(#mask-0)"><path id="矩形" fill-rule="evenodd" fill="url(#linear_1)" opacity="1" d="M-3.60596 23.9753L11.104 23.9753L11.104 -3.8147L-3.60596 -3.8147L-3.60596 23.9753Z"></path></g><g mask="url(#mask-0)"><path id="矩形" fill-rule="evenodd" fill="url(#linear_2)" opacity="1" d="M10.7524 23.9753L25.4624 23.9753L25.4624 -3.8147L10.7524 -3.8147L10.7524 23.9753Z"></path></g></g></g><g opacity="1"  transform="translate(4.44384765625 5.33349609375)  rotate(0)"><mask id="mask-1" fill="white"><path d="M13.3305 6.66988C13.3305 2.98988 10.3505 -0.00012207 6.67049 -0.00012207C2.99049 -0.00012207 0.000488281 2.98988 0.000488281 6.66988C0.000488281 10.3499 2.99049 13.3299 6.67049 13.3299C10.3505 13.3299 13.3305 10.3499 13.3305 6.66988Z"  ></path></mask><g mask="url(#mask-1)"><path id="蒙版" fill-rule="evenodd" fill="url(#linear_3)" opacity="1" d="M13.3305 6.66988C13.3305 2.98988 10.3505 -0.00012207 6.67049 -0.00012207C2.99049 -0.00012207 0.000488281 2.98988 0.000488281 6.66988C0.000488281 10.3499 2.99049 13.3299 6.67049 13.3299C10.3505 13.3299 13.3305 10.3499 13.3305 6.66988Z"></path></g><g mask="url(#mask-1)"><path id="形状" fill-rule="evenodd" fill="url(#linear_4)" opacity="1" d="M6.02689,8.88879h2.17c1.85001,0 3.36001,1.54001 3.36001,3.44001v0.23c0,0.75 -1.51,0.77 -3.36001,0.77h-2.17c-1.86,0 -3.36,0 -3.36,-0.77v-0.23c0,-1.9 1.5,-3.44001 3.36,-3.44001z"></path></g></g></g></g><defs><linearGradient id="linear_0" x1="50%" y1="0%" x2="107.36247623997366%" y2="107.68110245672302%" gradientUnits="objectBoundingBox"><stop offset="0" stop-color="#3023AE" stop-opacity="1" /><stop offset="1" stop-color="#C86DD7" stop-opacity="1" /></linearGradient><linearGradient id="linear_1" x1="104.08674300525718%" y1="0%" x2="50.000000000005684%" y2="137.35709055531657%" gradientUnits="objectBoundingBox"><stop offset="0" stop-color="#12FEE0" stop-opacity="1" /><stop offset="1" stop-color="#026DB2" stop-opacity="1" /></linearGradient><linearGradient id="linear_2" x1="50.000000000005684%" y1="10.077462375912205%" x2="205.85325520964943%" y2="108.90528453835486%" gradientUnits="objectBoundingBox"><stop offset="0" stop-color="#12FCDF" stop-opacity="1" /><stop offset="1" stop-color="#026DB2" stop-opacity="1" /></linearGradient><linearGradient id="linear_3" x1="50%" y1="81.27604166666629%" x2="51%" y2="-10.88020833333303%" gradientUnits="objectBoundingBox"><stop offset="0" stop-color="#12FEE0" stop-opacity="1" /><stop offset="1" stop-color="#026DB2" stop-opacity="1" /></linearGradient><linearGradient id="linear_4" x1="50.000000000005684%" y1="10.077462375912205%" x2="61.77343749999409%" y2="178.41796875%" gradientUnits="objectBoundingBox"><stop offset="0" stop-color="#12FCDF" stop-opacity="1" /><stop offset="1" stop-color="#026DB2" stop-opacity="1" /></linearGradient></defs></svg>