<svg xmlns="http://www.w3.org/2000/svg" xmlns:xlink="http://www.w3.org/1999/xlink" width="24.001953125" height="24.000002086133463" viewBox="0 0 24.001953125 24.000002086133463" fill="none"><g opacity="1"  transform="translate(0 0)  rotate(0)"><g opacity="1"  transform="translate(0 -0.0001220703125)  rotate(0)"><path id="形状" fill-rule="evenodd" fill="url(#linear_0)" opacity="1" d="M21.95,11.3899v12c0,0.34 -0.29,0.61 -0.64,0.61h-18.73c-0.34,0 -0.63,-0.27 -0.63,-0.61v-12h-1.32c-0.57,0 -0.84,-0.68 -0.43,-1.05l11.37,-10.18002c0.24,-0.21 0.61,-0.21 0.85,0l11.38,10.18002c0.42,0.37 0.14,1.05 -0.43,1.05z"></path></g><g opacity="1"  transform="translate(6.22216796875 12.4442138671875)  rotate(0)"><path id="矩形" fill-rule="evenodd" style="fill:#058AA7" opacity="1" d="M0 2.66988L2.67 2.66988L2.67 -0.00012207L0 -0.00012207L0 2.66988Z"></path><path id="矩形" fill-rule="evenodd" style="fill:#058AA7" opacity="1" d="M4.3418 2.66988L7.0118 2.66988L7.0118 -0.00012207L4.3418 -0.00012207L4.3418 2.66988Z"></path><path id="矩形" fill-rule="evenodd" style="fill:#058AA7" opacity="1" d="M8.7041 2.66988L11.3741 2.66988L11.3741 -0.00012207L8.7041 -0.00012207L8.7041 2.66988Z"></path><path id="矩形" fill-rule="evenodd" style="fill:#058AA7" opacity="1" d="M0 7.01155L2.67 7.01155L2.67 4.34155L0 4.34155L0 7.01155Z"></path><path id="矩形" fill-rule="evenodd" style="fill:#058AA7" opacity="1" d="M4.3418 7.01155L7.0118 7.01155L7.0118 4.34155L4.3418 4.34155L4.3418 7.01155Z"></path><path id="矩形" fill-rule="evenodd" style="fill:#058AA7" opacity="1" d="M8.7041 7.01155L11.3741 7.01155L11.3741 4.34155L8.7041 4.34155L8.7041 7.01155Z"></path></g></g><defs><linearGradient id="linear_0" x1="77.94355504653367%" y1="26.449765324605323%" x2="0%" y2="141.89219049380313%" gradientUnits="objectBoundingBox"><stop offset="0" stop-color="#12FEE0" stop-opacity="1" /><stop offset="1" stop-color="#026DB2" stop-opacity="1" /></linearGradient></defs></svg>