<svg xmlns="http://www.w3.org/2000/svg" xmlns:xlink="http://www.w3.org/1999/xlink" width="40.001953125" height="33.581787109375" viewBox="0 0 40.001953125 33.581787109375" fill="none"><g opacity="1"  transform="translate(7.11083984375 0)  rotate(0)"><g id="椭圆形" filter="url(#filter_2)"><path id="椭圆形" fill-rule="evenodd" style="fill:#000000" opacity="0.2" d="M25.78 20.5506C25.78 17.2806 20.01 14.6306 12.89 14.6306C5.77 14.6306 0 17.2806 0 20.5506C0 23.8206 5.77 26.4706 12.89 26.4706C20.01 26.4706 25.78 23.8206 25.78 20.5506Z"></path></g><g opacity="1"  transform="translate(0.3349609375 0)  rotate(0)"><path id="多边形" fill-rule="evenodd" fill="url(#linear_0)" opacity="1" d="M1.7 8.1L1.7 17.34C1.7 18.42 2.28 19.41 3.21 19.95L11.21 24.57C12.14 25.11 13.3 25.11 14.23 24.57L22.23 19.95C23.16 19.41 23.74 18.42 23.74 17.34L23.74 8.1C23.74 7.02 23.16 6.03 22.23 5.49L14.23 0.87C13.3 0.33 12.14 0.33 11.21 0.87L3.21 5.49C2.28 6.03 1.7 7.02 1.7 8.1Z"></path><path id="多边形" fill-rule="evenodd" fill="url(#linear_1)" opacity="1" d="M3.73326 9.27351L3.73326 16.1735C3.73326 17.2535 4.31326 18.2435 5.24326 18.7835L11.2133 22.2335C12.1433 22.7735 13.2933 22.7735 14.2233 22.2335L20.2033 18.7835C21.1333 18.2435 21.7133 17.2535 21.7133 16.1735L21.7133 9.27351C21.7133 8.19351 21.1333 7.20351 20.2033 6.66351L14.2233 3.21351C13.2933 2.67351 12.1433 2.67351 11.2133 3.21351L5.24326 6.66351C4.31326 7.20351 3.73326 8.19351 3.73326 9.27351Z"></path><g opacity="0.5"  transform="translate(2.0087890625 0.6695556640625)  rotate(0)"><path  id="路径 34" style="fill:#66FFFF; opacity:1;" d="M-0.21815,17.6907l21.39235,-12.05198l0.4363,0.77444l-21.39235,12.05194z"></path><path  id="路径 34" style="fill:#66FFFF; opacity:1;" d="M21.1713,18.4636l-21.05747,-12.05192l0.44154,-0.77147l21.05753,12.05189z"></path><path  id="路径 33" style="fill:#66FFFF; opacity:1;" d="M11.1573,0v24.1039c0,0.0292 -0.00283,0.0581 -0.0085,0.0867c-0.00567,0.0286 -0.0141,0.0564 -0.0253,0.0834c-0.01113,0.02693 -0.02483,0.05253 -0.0411,0.0768c-0.0162,0.02427 -0.0346,0.0467 -0.0552,0.0673c-0.02067,0.02067 -0.04313,0.0391 -0.0674,0.0553c-0.02427,0.0162 -0.04987,0.0299 -0.0768,0.0411c-0.027,0.01113 -0.0548,0.01957 -0.0834,0.0253c-0.0286,0.00567 -0.0575,0.0085 -0.0867,0.0085c-0.0292,0 -0.0581,-0.00283 -0.0867,-0.0085c-0.0286,-0.00573 -0.0564,-0.01417 -0.0834,-0.0253c-0.02693,-0.0112 -0.05253,-0.0249 -0.0768,-0.0411c-0.02427,-0.0162 -0.04673,-0.03463 -0.0674,-0.0553c-0.0206,-0.0206 -0.03903,-0.04303 -0.0553,-0.0673c-0.0162,-0.02427 -0.02987,-0.04987 -0.041,-0.0768c-0.0112,-0.027 -0.01963,-0.0548 -0.0253,-0.0834c-0.00573,-0.0286 -0.0086,-0.0575 -0.0086,-0.0867v-24.1039c0,-0.02918 0.00287,-0.05808 0.0086,-0.08671c0.00567,-0.02862 0.0141,-0.05641 0.0253,-0.08337c0.01113,-0.02696 0.0248,-0.05257 0.041,-0.07684c0.01627,-0.02426 0.0347,-0.04671 0.0553,-0.06735c0.02067,-0.02064 0.04313,-0.03906 0.0674,-0.05527c0.02427,-0.01621 0.04987,-0.0299 0.0768,-0.04107c0.027,-0.01117 0.0548,-0.0196 0.0834,-0.02529c0.0286,-0.00569 0.0575,-0.00854 0.0867,-0.00854c0.0292,0 0.0581,0.00285 0.0867,0.00854c0.0286,0.00569 0.0564,0.01412 0.0834,0.02529c0.02693,0.01117 0.05253,0.02486 0.0768,0.04107c0.02427,0.01621 0.04673,0.03464 0.0674,0.05527c0.0206,0.02064 0.039,0.04309 0.0552,0.06735c0.01627,0.02426 0.02997,0.04988 0.0411,0.07684c0.0112,0.02696 0.01963,0.05475 0.0253,0.08337c0.00567,0.02862 0.0085,0.05752 0.0085,0.08671z"></path></g><path id="椭圆形" fill-rule="evenodd" style="fill:#66FFFF" opacity="1" d="M13.0567 12.7217C13.0567 12.5367 12.9067 12.3867 12.7217 12.3867C12.5367 12.3867 12.3867 12.5367 12.3867 12.7217C12.3867 12.9067 12.5367 13.0567 12.7217 13.0567C12.9067 13.0567 13.0567 12.9067 13.0567 12.7217Z"></path></g></g><defs><filter id="filter_2" x="-3.555555555555556" y="11.075059678819445" width="32.88888888888889" height="18.954954954954953" filterUnits="userSpaceOnUse" color-interpolation-filters="sRGB"><feFlood flood-opacity="0" result="BackgroundImageFix"/>
          <feBlend mode="normal" in="SourceGraphic" in2="BackgroundImageFix" result="shape"/>
          <feGaussianBlur stdDeviation="1.777777777777778" result="effect1_foregroundBlur" /></filter><linearGradient id="linear_0" x1="100%" y1="8.06073895079131%" x2="-23.6723631907779%" y2="386.7103710589234%" gradientUnits="objectBoundingBox"><stop offset="0" stop-color="#12FEE0" stop-opacity="1" /><stop offset="1" stop-color="#026DB2" stop-opacity="1" /></linearGradient><linearGradient id="linear_1" x1="-28.552912808234076%" y1="113.48785088620366%" x2="129.15226617354068%" y2="-27.86678204641338%" gradientUnits="objectBoundingBox"><stop offset="0" stop-color="#12FEE0" stop-opacity="1" /><stop offset="1" stop-color="#026DB2" stop-opacity="1" /></linearGradient></defs></svg>