<svg xmlns="http://www.w3.org/2000/svg" xmlns:xlink="http://www.w3.org/1999/xlink" width="440.099365234375" height="331" viewBox="0 0 440.099365234375 331" fill="none"><g opacity="1"  transform="translate(0 0)  rotate(0)"><g id="形状结合" filter="url(#filter_1)"><path id="形状结合" fill-rule="evenodd" style="fill:#02004D" opacity="0.4" d="M325.69,0.06812h104.15l10.16,25.22998v290.7699c0,7.73 -6.27,14 -14,14h-412c-7.73,0 -14,-6.27 -14,-14v-290.7699l10.87,-25.22998h104.54l13.47,35.05998h183.04z"></path><path  id="形状结合" style="fill:#0D53B7; opacity:1;" d="M311.92,37.1281h-184.414l-13.963,-36.3427l1.867,-0.71728v2h-104.54v-2l1.8368,0.79135l-10.87002,25.23003l-1.83678,-0.7914h2v290.7699c0,6.628 5.37258,12 12,12h412c6.627,0 12,-5.372 12,-12v-290.7699h2l-1.855,0.7471l-10.16,-25.23l1.855,-0.74709v2h-104.15v-2l1.862,0.73114l-14.269,36.32885zM311.92,33.1281v2l-1.862,-0.7311l14.269,-36.32888h106.864l10.809,26.84238v291.1575c0,8.837 -7.163,16 -16,16h-412c-8.83655,0 -16,-7.163 -16,-16v-291.1824l11.55395,-26.81748h107.23005l13.963,36.34268l-1.867,0.7173v-2z"></path></g><path id="路径 11" fill-rule="evenodd" fill="url(#linear_0)" opacity="1" d="M131.28 31.7435L308.7 31.7435L321.169 0.803467L119.5 0.803467L131.28 31.7435Z"></path><path id="路径 3" style="fill:url(#linear_1); opacity:100" d="M144.598,34.9224h150.901v3h-150.901z"></path><path id="矩形" fill-rule="evenodd" style="fill:#0E5FFF" opacity="1" d="M0 18.47L8.1 0L0 0L0 18.47Z"></path><path id="矩形" fill-rule="evenodd" style="fill:#0E5FFF" opacity="1" d="M431.999 0L440.099 18.47L440.099 0L431.999 0Z"></path></g><defs><filter id="filter_1" x="-34" y="-33.931884765625" width="508" height="398" filterUnits="userSpaceOnUse" color-interpolation-filters="sRGB"><feFlood flood-opacity="0" result="feFloodId"/>
          <feColorMatrix in="SourceAlpha" type="matrix" values="0 0 0 0 0 0 0 0 0 0 0 0 0 0 0 0 0 0 127 0" result="hardAlpha"/>
          
          <feOffset dx="0" dy="0"/>
          <feGaussianBlur stdDeviation="17"/>
          <feComposite in2="hardAlpha" operator="arithmetic" k2="-1" k3="1"/>
          <feColorMatrix type="matrix" values="0 0 0 0 0.06666666666666667 0 0 0 0 0.1568627450980392 0 0 0 0 1 0 0 0 0.66 0"/>
          <feBlend mode="normal" in2="filter_feFlood" result="filter_feFlood_1"/>
          <feBlend mode="normal" in="SourceGraphic" in2="filter_1" result="shape"/></filter><linearGradient id="linear_0" x1="50.000000000000014%" y1="0%" x2="50%" y2="99.99999999999964%" gradientUnits="objectBoundingBox"><stop offset="0" stop-color="#0E5FFF" stop-opacity="1" /><stop offset="1" stop-color="#1C00FF" stop-opacity="0" /></linearGradient><linearGradient id="linear_1" x1="1.4843069596189196%" y1="100%" x2="98.27734787054285%" y2="0%" gradientUnits="objectBoundingBox"><stop offset="0" stop-color="#00FFF4" stop-opacity="0" /><stop offset="0.5322509979034638" stop-color="#00FFF4" stop-opacity="1" /><stop offset="1" stop-color="#00FFF4" stop-opacity="0" /></linearGradient></defs></svg>